<svg version="1.1" xmlns="http://www.w3.org/2000/svg" xmlns:xlink="http://www.w3.org/1999/xlink" width="550.49691" height="333.27381" viewBox="0,0,550.49691,333.27381"><g transform="translate(35.24846,-13.3631)"><g data-paper-data="{&quot;isPaintingLayer&quot;:true}" fill-rule="nonzero" stroke-linejoin="miter" stroke-miterlimit="10" stroke-dasharray="" stroke-dashoffset="0" style="mix-blend-mode: normal"><path d="M168.09481,215.849c2,0 2,2 2,2l-0.00276,1.30529c0.1388,2.64279 0.33995,5.25653 0.69042,7.88011c0,0 0.10465,0.78489 -0.31161,1.43278c0.25823,3.8931 0.38186,7.81654 0.60738,11.68302c0.05596,0.9595 -0.11641,2.25127 -0.14613,3.49749c0.64236,0.01855 1.30597,0.11186 1.88197,0.15771c4.51053,0.35901 10.22315,4.29262 14.01016,6.46552c0.85975,1.10267 2.47827,1.91344 2.57925,3.30802c0.49732,6.86793 -9.212,5.28076 -12.53928,3.39907c-1.9866,-1.1235 -4.22098,-2.77287 -6.06599,-4.66575c-0.83726,-0.75388 -1.76537,-1.79017 -2.37635,-2.95569c-0.28807,-0.45634 -0.54171,-0.91774 -0.75405,-1.38116c-1.07342,-2.34271 -0.43601,-5.11976 -0.58186,-7.57665c-0.342,-5.76123 -0.42563,-11.65597 -1.11795,-17.37503c0,0 -0.08516,-0.70969 0.2706,-1.33144c-0.05364,-0.77416 -0.10002,-1.54979 -0.14105,-2.32775l-0.00276,-1.51552c0,0 0,-2 2,-2z" fill="#000000" stroke="none" stroke-width="0.5" stroke-linecap="butt"/><g data-paper-data="{&quot;index&quot;:null}"><g stroke-linecap="butt"><path d="M52.93324,176.90617c-5.32291,-32.808 3.321,-61.38696 46.11937,-68.45043c43.99692,-7.26129 60.07241,17.54983 65.39532,50.35782c0.70622,4.35281 -26.06814,8.54502 -26.46994,6.06856c-2.74881,-16.94243 -8.27443,-36.14318 -34.55034,-31.00375c-29.11384,5.65714 -25.78596,23.40455 -23.03715,40.34698c0.34265,2.11193 -26.87142,6.29164 -27.45726,2.68081z" fill="#bababa" stroke="none" stroke-width="0"/><path d="M62.79768,176.71068c-1.59111,-9.80688 1.1963,-48.40005 41.8253,-54.17022c37.81252,-4.34078 46.93626,32.94434 46.93626,32.94434c0,0 -12.36684,11.0007 -12.55794,9.82283c-2.74881,-16.94243 -9.98254,-37.08618 -36.25845,-31.94674c-29.11384,5.65714 -24.07785,24.34755 -21.32904,41.28998c0.34265,2.11193 -18.03029,5.67063 -18.61613,2.05981z" fill="#817da1" stroke="none" stroke-width="0"/><path d="M52.73182,176.75398c-5.32291,-32.808 3.321,-61.38696 46.11937,-68.45043c43.99692,-7.26129 60.07241,17.54983 65.39532,50.35782c0.70622,4.35281 -26.06814,8.54502 -26.46994,6.06856c-2.74881,-16.94243 -8.27443,-36.14318 -34.55034,-31.00375c-29.11384,5.65714 -25.78596,23.40455 -23.03715,40.34698c0.34265,2.11193 -26.87142,6.29164 -27.45726,2.68081z" fill="none" stroke="#262338" stroke-width="4"/></g><g stroke-linecap="butt"><path d="M183.76455,186.40608c2.63965,19.33092 -6.18347,36.99614 -26.17578,39.22871c-21.61665,2.41396 -33.09515,-11.44384 -35.7348,-30.77478c-2.63965,-19.33092 4.28066,-35.84144 26.17578,-39.22871c22.7059,-3.51269 33.09515,11.44384 35.7348,30.77478z" fill="#4d12c6" stroke="none" stroke-width="0"/><path d="M183.76455,186.40608c2.63965,19.33092 -4.55762,36.77413 -21.61275,38.60563c-18.44083,1.9803 -30.6377,-11.77941 -33.27736,-31.11034c-2.63965,-19.33092 2.61286,-34.66044 21.27263,-37.60592c21.9562,-3.17201 30.97783,10.7797 33.61748,30.11064z" fill="#b216ff" stroke="none" stroke-width="0"/><path d="M183.76455,186.40608c2.63965,19.33092 -6.18347,36.99614 -26.17578,39.22871c-21.61665,2.41396 -33.09515,-11.44384 -35.7348,-30.77478c-2.63965,-19.33092 4.28066,-35.84144 26.17578,-39.22871c22.7059,-3.51269 33.09515,11.44384 35.7348,30.77478z" fill="none" stroke="#130857" stroke-width="4"/><path d="M182.01344,187.21075c2.22308,16.28035 -6.69797,30.94244 -19.92575,32.74871c-13.22778,1.80626 -25.75319,-9.9273 -27.97628,-26.20764c-2.22308,-16.28035 6.69797,-30.94244 19.92575,-32.74871c13.22778,-1.80626 25.75319,9.9273 27.97628,26.20764z" fill="#e0e0e0" stroke="none" stroke-width="0"/><path d="M181.80209,189.47684c2.13488,15.6343 -7.55999,28.9473 -20.26286,30.68189c-12.70287,1.73458 -24.73123,-9.53337 -26.86611,-25.16767c-2.13488,-15.6343 3.39228,-30.79914 18.90261,-32.91707c12.70287,-1.73458 26.0915,11.76854 28.22638,27.40285z" fill="#cfcfcf" stroke="none" stroke-width="0"/></g><g><g stroke-linecap="butt"><path d="M106.8661,195.45117c4.10007,19.07464 -3.35602,37.35889 -23.12105,41.10329c-21.37089,4.04862 -33.86867,-8.89745 -37.96873,-27.9721c-4.10008,-19.07464 1.5464,-36.06302 23.12105,-41.10328c22.37356,-5.2269 33.86867,8.89745 37.96874,27.9721z" fill="#4d12c6" stroke="none" stroke-width="0"/><path d="M106.8661,195.45117c4.10007,19.07464 -1.75173,37.01406 -18.61852,40.13547c-18.23717,3.37503 -31.4438,-9.41867 -35.54388,-28.49332c-4.10008,-19.07464 -0.0269,-34.75877 18.3553,-39.11281c21.65189,-4.83026 31.707,8.39603 35.80708,27.47066z" fill="#b216ff" stroke="none" stroke-width="0"/><path d="M106.8661,195.45117c4.10007,19.07464 -3.35602,37.35889 -23.12105,41.10329c-21.37089,4.04862 -33.86867,-8.89745 -37.96873,-27.9721c-4.10008,-19.07464 1.5464,-36.06302 23.12105,-41.10328c22.37356,-5.2269 33.86867,8.89745 37.96874,27.9721z" fill="none" stroke="#130857" stroke-width="4"/></g><g><path d="M104.8465,197.70481c3.48285,16.20314 -1.76696,31.50192 -16.59851,34.26175c-16.0366,2.98406 -25.72818,-8.21187 -29.21102,-24.41503c-3.48286,-16.20314 0.42852,-30.44384 16.5985,-34.26174c16.76878,-3.95928 25.72818,8.21186 29.21103,24.41501z" fill="#686868" stroke="none" stroke-width="0" stroke-linecap="butt"/><path d="M104.58457,195.92852c3.18316,14.80892 -1.61492,28.79126 -15.17026,31.31363c-14.6567,2.72729 -23.51438,-7.50526 -26.69752,-22.31419c-3.18317,-14.80892 0.39166,-27.82426 15.17026,-31.31362c15.32589,-3.61859 23.51438,7.50527 26.69752,22.31418z" fill="#7c7c7c" stroke="none" stroke-width="0" stroke-linecap="butt"/><path d="M76.47467,231.33893l-9.93199,-53.68732" fill="none" stroke="#0c0c0c" stroke-width="4" stroke-linecap="round"/><path d="M88.05062,230.68845l-10.85953,-56.93377" fill="none" stroke="#0c0c0c" stroke-width="4" stroke-linecap="round"/><path d="M58.09416,193.49707l41.34404,-7.82928" fill="none" stroke="#0c0c0c" stroke-width="4" stroke-linecap="round"/><path d="M104.35995,199.37563l-45.60723,8.52526" fill="none" stroke="#0c0c0c" stroke-width="4" stroke-linecap="round"/><path d="M63.45497,220.66778l40.68864,-8.83596" fill="none" stroke="#0c0c0c" stroke-width="4" stroke-linecap="round"/><path d="M87.06428,172.84903l10.28695,53.93186" fill="none" stroke="#0c0c0c" stroke-width="4" stroke-linecap="round"/><path d="M104.12653,197.05053c3.48286,16.20314 -1.76695,31.5019 -16.59852,34.26174c-16.03661,2.98408 -25.72818,-8.21188 -29.21103,-24.41502c-3.48285,-16.20314 0.42853,-30.44383 16.59852,-34.26174c16.76878,-3.95929 25.72818,8.21186 29.21103,24.41501z" fill="none" stroke="#363636" stroke-width="4" stroke-linecap="butt"/></g></g></g><path d="M141.58593,253.36763c1.69379,-0.05712 3.5242,0.3182 4.48065,0.4378c3.98102,0.49782 11.29944,2.05352 14.48533,4.757c2.56378,2.17557 3.64129,3.86148 1.31972,7.11323c-0.66303,0.92868 -2.00335,1.09308 -3.00503,1.63963c-6.94809,0.38572 -20.12229,-1.73921 -22.21592,-10.03412c-0.77463,-3.06907 2.4249,-8.89425 3.21824,-11.80362c1.69365,-6.21104 2.14856,-12.58143 4.02811,-18.76114c0,0 0.58233,-1.91335 2.49567,-1.33102c1.91335,0.58233 1.33102,2.49567 1.33102,2.49567c-1.86931,6.13776 -2.31369,12.47234 -3.99553,18.64814c-0.62497,2.29493 -1.40659,4.56527 -2.14227,6.83842z" fill="#000000" stroke="none" stroke-width="0.5" stroke-linecap="butt"/><path d="M131.03879,231.55666c3.48312,2.0763 4.88577,6.56339 3.56015,10.87724c-0.55423,1.80359 -1.4153,3.25707 -2.50712,4.45231c-0.00618,0.0129 -0.01238,0.02586 -0.0186,0.03888c-0.82881,0.80834 -1.44937,1.91039 -2.48643,2.42503c-0.72869,0.36161 -1.51085,0.68296 -2.31316,0.89248c-0.83933,0.38565 -1.72012,0.72732 -2.62996,1.03997c-2.56059,-0.14489 -3.50093,0.0994 -5.82725,-1.26195c-5.41268,-3.16748 -5.8886,-10.52381 -2.05064,-15.11042c1.89477,-2.26437 4.1052,-3.53192 6.78953,-4.55739c1.33073,-0.50836 3.00104,0.15095 4.2371,-0.55716c0.28517,-0.16337 -0.19956,-0.6496 -0.14994,-0.97448c0.15608,-1.0219 0.43852,-2.02406 0.75809,-3.00718c1.3254,-4.0775 3.62716,-7.9932 5.26449,-11.97043c0,0 0.7615,-1.84936 2.61086,-1.08786c1.84936,0.7615 1.08786,2.61086 1.08786,2.61086c-1.60183,3.88935 -3.8893,7.73602 -5.17252,11.72442c-0.16078,0.49974 -0.68541,2.96463 -1.15245,4.46568z" fill="#000000" stroke="none" stroke-width="0.5" stroke-linecap="butt"/><path d="M209.88595,220.70607c-3.56791,0.80326 -8.33835,0.46161 -10.15982,-3.38617c-1.03584,-2.18817 -0.68742,-4.23863 -0.16864,-6.32501c-0.13294,-3.61803 1.84826,-7.3695 5.66151,-8.70959c0.12885,-0.04528 0.2547,-0.08644 0.37778,-0.12367c2.33558,-1.90497 5.09298,-3.05443 8.03728,-2.03287c6.20705,2.15362 9.61007,11.98433 4.67508,17.01884c-0.78261,0.7984 -1.96588,1.41137 -3.18152,1.82333c-1.67848,5.25682 -6.05722,9.56163 -12.73787,10.44925c-11.77979,1.56512 -19.6925,-7.07777 -25.52201,-15.82132c0,0 -1.1094,-1.6641 0.5547,-2.7735c1.6641,-1.1094 2.7735,0.5547 2.7735,0.5547c5.00737,7.51163 11.45645,15.29961 21.68257,14.07293c3.55536,-0.42649 6.28034,-2.25552 8.00744,-4.74692z" fill="#000000" stroke="none" stroke-width="0.5" stroke-linecap="butt"/><path d="M150.63108,179.60582c-0.15928,3.54158 -0.36677,7.14344 -1.34451,10.57851c-0.31396,1.10305 -0.44121,2.37919 -1.22736,3.21421c-0.09832,0.10443 -0.19962,0.20537 -0.30357,0.30319l0.03311,0.03311l-2.53873,2.53873c-0.36193,0.36193 -0.86193,0.58579 -1.41421,0.58579c-1.06982,0 -1.94345,-0.83997 -1.99736,-1.89639l-0.14023,-2.38385l0.04203,-0.00247l-0.04537,-0.13605c0.44568,-5.60862 1.94552,-10.82418 3.30354,-16.26057c0,0 0.48507,-1.94029 2.42535,-1.45522c0.61478,0.15369 0.98607,0.45349 1.20645,0.79136c1.00044,0.06921 1.79838,0.87418 1.85654,1.87762l0.14001,2.10012l-0.03871,0.00258z" fill="#000000" stroke="none" stroke-width="0.5" stroke-linecap="butt"/><path d="M174.05534,181.46368c-0.81262,2.00713 -2.33803,6.40287 -6.13862,4.5354c-1.27032,-0.62419 -0.94157,-2.69218 -1.11662,-4.0967c-0.663,-5.31962 0.97456,-12.13212 3.31395,-16.8508c0,0 0.73442,-1.46885 2.20328,-1.07905l0.42803,-0.42803c0,0 0,0 0,0c0.36193,-0.36193 0.86193,-0.58578 1.41421,-0.58578c1.10457,0 2,0.89543 2,2l0,3.1029c-0.00852,4.36149 -0.46176,9.34527 -2.10423,13.40207z" fill="#000000" stroke="none" stroke-width="0.5" stroke-linecap="butt"/><path d="M169.81903,203.95137c1.90917,0.59588 1.31328,2.50505 1.31328,2.50505l-0.60224,1.92561c-1.5501,4.36545 -3.34799,8.13989 -7.45495,10.7491c-6.93054,4.40307 -17.94912,4.21256 -21.74724,-4.25786c-0.60571,-1.35083 -0.74989,-2.86429 -1.12484,-4.29643c0,0 -0.48507,-1.94029 1.45521,-2.42536c1.94029,-0.48507 2.42536,1.45521 2.42536,1.45521c0.27181,1.1549 0.34991,2.3734 0.81544,3.46471c2.74355,6.43144 11.13479,5.73368 16.08596,2.64925c3.27602,-2.04087 4.58419,-5.21745 5.76972,-8.66027l0.55925,-1.79572c0,0 0.59588,-1.90917 2.50505,-1.31328z" fill="#000000" stroke="none" stroke-width="0.5" stroke-linecap="butt"/><g stroke-linecap="butt"><path d="M195.94366,185.88115v-93.23936h239.52117v93.23936z" fill="#f9fcff" stroke="#6c8b98" stroke-width="5"/><text transform="translate(205.51989,125.26066) scale(0.43873,0.43873)" font-size="40" xml:space="preserve" fill="#000000" fill-rule="nonzero" stroke="none" stroke-width="1" stroke-linecap="butt" stroke-linejoin="miter" stroke-miterlimit="10" stroke-dasharray="" stroke-dashoffset="0" font-family="serif" font-weight="normal" text-anchor="start" style="mix-blend-mode: normal"><tspan x="0" dy="0">This section of the website</tspan><tspan x="0" dy="46.15px">is still a work in progress!</tspan><tspan x="0" dy="46.15px"> </tspan></text><text transform="translate(208.4416,169.62797) scale(0.30375,0.30375)" font-size="40" xml:space="preserve" fill="#000000" fill-rule="nonzero" stroke="none" stroke-width="1" stroke-linecap="butt" stroke-linejoin="miter" stroke-miterlimit="10" stroke-dasharray="" stroke-dashoffset="0" font-family="serif" font-weight="normal" text-anchor="start" style="mix-blend-mode: normal"><tspan x="0" dy="0">Please come again later!</tspan></text></g><path d="M-35.24846,346.6369v-333.27381h550.49691v333.27381z" fill="none" stroke="none" stroke-width="none" stroke-linecap="butt"/></g></g></svg>