<svg version="1.1" xmlns="http://www.w3.org/2000/svg" xmlns:xlink="http://www.w3.org/1999/xlink" width="169.07277" height="95.41433" viewBox="0,0,169.07277,95.41433"><g transform="translate(-156.91813,-132.29284)"><g data-paper-data="{&quot;isPaintingLayer&quot;:true}" fill-rule="nonzero" stroke-linecap="butt" stroke-linejoin="miter" stroke-miterlimit="10" stroke-dasharray="" stroke-dashoffset="0" style="mix-blend-mode: normal"><g><path d="M214.62708,150.46624c5.29673,-1.25045 10.56071,-0.42976 15.90028,-0.79545c6.46873,-0.44302 12.22661,-2.84363 18.19783,-5.08232c6.34451,-1.98011 13.88954,-4.05912 20.61715,-2.85814c5.53324,0.98777 8.92574,4.90772 13.93558,6.7855c2.7388,1.02655 5.81261,0.90278 8.49324,1.77982c3.50749,1.14757 5.48295,3.79821 8.48022,5.59843c0.43321,0.26019 4.47781,1.93039 5.30356,2.27454c4.53897,2.11782 10.59492,6.77506 13.16691,11.22955c4.1019,7.10416 0.68178,15.74781 -2.33202,22.35397c-1.18362,2.59445 -1.76287,5.09191 -3.25792,7.61688c-0.96414,1.62832 -2.35907,2.97494 -3.31919,4.60563c-1.52686,2.59326 -2.80812,4.49125 -5.23777,6.39103c-5.50509,3.22311 -11.16945,7.19296 -17.83603,7.19524c-6.99225,0.00239 -13.54172,-3.72183 -20.69577,-2.97131c-6.99909,0.73426 -13.75165,2.95888 -20.644,4.24803c-5.22235,0.52437 -10.4428,0.90828 -15.59553,-0.41237c-5.18385,-1.32863 -9.8814,-3.63442 -15.31864,-3.82834c-3.72198,-0.13275 -8.43237,2.05715 -12.01386,0.58046c-0.93614,-0.38598 -1.55087,-1.30238 -2.3263,-1.95357l-0.16829,-0.12322c-3.04232,-0.06205 -5.86503,-0.36099 -8.72906,-1.78259c-4.43374,-1.27677 -9.22823,1.73014 -13.96699,1.22911c-1.73921,-0.18388 -3.3768,-0.94662 -4.98856,-1.62551c-5.87991,-2.47669 -12.35134,-5.20598 -14.63386,-11.75164c-1.07249,-3.07561 -0.66327,-6.34764 -0.66327,-9.53716c0,-3.93396 -0.14292,-7.80857 0.41287,-11.70743c2.82752,-9.90811 13.78159,-13.97825 23.50378,-12.68699c2.96132,0.39331 7.1991,2.26863 10.17361,1.21901c3.06299,-1.08085 5.164,-6.21561 7.09309,-8.63281c0,0 1.13921,-1.42402 2.60177,-0.46468c4.38003,-2.71764 8.76594,-5.69408 13.84716,-6.89366z" fill="#8d37c1" stroke="none" stroke-width="0.5"/><g stroke="none" stroke-width="0.5"><path d="M251.63188,208.33568l0.77758,0.40937c10.99193,3.6666 27.8292,2.65529 29.82387,-11.55904c0.23719,-1.69026 0.18466,-2.65493 -0.05166,-4.39852c-0.40609,-2.99613 -1.22808,-5.39136 -2.48204,-8.10524c-5.13064,-9.39511 -17.45528,-13.59068 -27.19519,-8.5237c-2.85287,1.48415 -5.05846,2.82054 -6.27529,5.86186c0,0 -0.05807,0.13937 -0.18089,0.32141c4.72925,6.15936 6.73502,13.90135 5.81264,21.94382c-0.14248,1.24233 -0.34177,2.57833 -0.63851,3.90897c0.24752,0.0601 0.40948,0.14108 0.40948,0.14108zM250.81718,172.90804c0.46665,-0.24017 0.93795,-0.46274 1.41319,-0.66801c-0.10809,-0.08187 -0.1687,-0.14247 -0.1687,-0.14247l-0.48973,-0.50973c-1.772,-2.28208 -3.69646,-4.78603 -6.61867,-5.61921c-4.98377,-1.42096 -6.69607,5.97216 -6.75128,9.85687c1.20328,0.60051 2.37813,1.26409 3.51619,1.97661c0.60012,0.50969 1.17489,1.03764 1.72413,1.58265c1.66344,-3.05867 4.11295,-4.79792 7.37486,-6.47671zM282.97167,183.0371c1.42586,3.09234 2.38296,5.8745 2.84269,9.28533c0.28006,2.07783 0.32627,3.30866 0.04989,5.34219c-0.35467,2.60965 -0.94477,4.98219 -2.25683,7.27615c-6.26138,10.94718 -22.03531,10.71635 -32.35609,7.27867l-1.09214,-0.5282c-0.33746,0.83067 -0.73489,1.61917 -1.20447,2.33584c-5.74725,8.77141 -17.811,13.85666 -28.04837,13.6754c-4.07945,-0.08472 -7.74458,-0.46394 -11.45781,-2.3651c-12.21264,-6.25284 -14.30955,-24.99256 -9.32262,-36.60773c1.15229,-2.68383 2.89645,-4.87354 4.88824,-6.86935c-0.64925,-0.44848 -0.77767,-1.28316 -0.77767,-1.28316c-2.4316,-15.82347 -3.11564,-34.28034 12.84739,-43.30298c4.0472,-2.28757 8.24609,-3.68364 12.75619,-4.65411c8.54159,-1.05962 15.91169,0.55518 23.95564,3.38943c6.55317,2.30898 12.26808,5.17194 15.75071,11.53172c3.57016,6.51963 2.93747,15.35309 2.93747,22.58326l0.16048,1.5135c0,0 0.06936,0.69365 -0.30549,1.26779c4.40299,2.16955 8.18753,5.64335 10.63279,10.13136zM268.82155,170.12446c0,-6.52949 0.74593,-14.93882 -2.48878,-20.82679c-3.05664,-5.56385 -8.04922,-7.82232 -13.75457,-9.83416c-7.43268,-2.62092 -14.23107,-4.22146 -22.12742,-3.23242c-2.99034,0.63779 -5.65516,1.39294 -8.46861,2.63757c-1.33025,0.58849 -4.82791,2.48308 -6.00808,3.37642c-11.55267,8.74486 -10.15018,24.36769 -8.22481,37.07531c0.2187,-0.19223 0.43841,-0.38381 0.65876,-0.57507c0,0 0.98041,-0.84969 2.00596,-0.29344c1.1469,-1.12017 2.08119,-1.94475 3.93539,-3.05533c6.50709,-3.89745 13.67518,-3.58209 20.27666,-1.12836c0.56269,-6.09645 4.00579,-13.51944 11.19408,-11.85784c3.77125,0.87174 6.39216,4.03994 8.64268,6.92902l0.18854,0.16855c0,0 0.75466,0.75467 0.53557,1.68786c4.57741,-1.27316 9.36858,-1.07888 13.76885,0.33955zM208.41321,183.64649c-2.00601,1.88332 -3.81277,3.93892 -4.92496,6.53485c-4.20794,9.82168 -2.83224,26.55724 7.63446,31.89876c3.20612,1.63619 6.33341,1.9036 9.85175,1.96068c9.04405,0.17703 19.76687,-4.33134 24.91392,-12.01628c1.49692,-2.23501 2.03293,-5.56616 2.33434,-8.15878c1.01958,-8.77015 -1.88618,-17.39754 -8.66345,-23.10529c-6.97369,-4.34992 -15.72951,-6.8105 -23.3229,-2.2251c-2.20491,1.33148 -2.91746,2.20536 -4.67225,3.92215l-1.12366,0.94365c0,0 -1.00717,0.8393 -2.02726,0.24535z" fill="#5d0079"/><path d="M251.19346,208.23007c0.29674,-1.33064 0.49215,-2.67019 0.63464,-3.91252c0.92238,-8.04247 -1.09074,-15.83833 -5.81999,-21.99769c0.12282,-0.18203 0.18128,-0.32212 0.18128,-0.32212c1.21682,-3.04132 3.43527,-4.39208 6.28814,-5.87623c9.73991,-5.06698 22.13257,-0.85453 27.26322,8.54058c1.25395,2.71387 2.0806,5.13057 2.48669,8.1267c0.23632,1.74359 0.28725,2.719 0.05006,4.40925c-1.99468,14.21433 -18.90278,15.2508 -29.89471,11.5842l-0.77914,-0.41054c0,0 -0.16267,-0.08155 -0.41019,-0.14165z" data-paper-data="{&quot;noHover&quot;:false,&quot;origItem&quot;:[&quot;Path&quot;,{&quot;applyMatrix&quot;:true,&quot;segments&quot;:[[160.14429,187.81394],[[160.92187,188.22331],[0,0],[10.99193,3.6666]],[[190.74574,176.66427],[-1.99468,14.21433],[0.23719,-1.69026]],[[190.69408,172.26575],[0.23632,1.74359],[-0.40609,-2.99613]],[[188.21205,164.16051],[1.25395,2.71387],[-5.13064,-9.39511]],[[161.01686,155.63681],[9.73991,-5.06698],[-2.85287,1.48415]],[[154.74157,161.49867],[1.21682,-3.04132],[0,0]],[[154.56069,161.82008],[0.12282,-0.18203],[4.72925,6.15936]],[[160.37332,183.7639],[0.92238,-8.04247],[-0.14248,1.24233]],[[159.73481,187.67286],[0.29674,-1.33064],[0.24752,0.0601]]],&quot;closed&quot;:true}]}" fill="#c752ea"/><path d="M268.9976,171.55395c-4.40027,-1.41843 -9.1971,-1.60326 -13.77451,-0.3301c0.21909,-0.93319 -0.60922,-1.74221 -0.60922,-1.74221l-0.18858,-0.1685c-2.25052,-2.88908 -4.79446,-6.00782 -8.56571,-6.87955c-7.18829,-1.6616 -10.67916,5.78317 -11.24185,11.87962c-6.60149,-2.45373 -13.79768,-2.78639 -20.30477,1.11106c-1.8542,1.11058 -2.78846,1.93521 -3.93535,3.05538c-1.02555,-0.55625 -2.0067,0.29243 -2.0067,0.29243c-0.22035,0.19126 -0.44,0.38292 -0.6587,0.57515c-1.92537,-12.70761 -3.32814,-28.38375 8.22453,-37.12861c1.18017,-0.89334 4.68579,-2.79657 6.01604,-3.38506c2.81344,-1.24463 5.49298,-2.00806 8.48331,-2.64584c7.89635,-0.98904 14.73844,0.61943 22.17112,3.24036c5.70535,2.01183 10.71288,4.29294 13.76952,9.85679c3.2347,5.88797 2.4873,14.32715 2.4873,20.85664z" data-paper-data="{&quot;noHover&quot;:false,&quot;origItem&quot;:[&quot;Path&quot;,{&quot;applyMatrix&quot;:true,&quot;segments&quot;:[[[177.33396,149.60272],[0,0],[0,-6.52949]],[[174.84518,128.77593],[3.2347,5.88797],[-3.05664,-5.56385]],[[161.09061,118.94177],[5.70535,2.01183],[-7.43268,-2.62092]],[[138.96319,115.70935],[7.89635,-0.98904],[-2.99034,0.63779]],[[130.49459,118.34693],[2.81344,-1.24463],[-1.33025,0.58849]],[[124.48651,121.72335],[1.18017,-0.89334],[-11.55267,8.74486]],[[116.26169,158.79866],[-1.92537,-12.70761],[0.2187,-0.19223]],[[116.92045,158.22359],[-0.22035,0.19126],[0,0]],[[118.92641,157.93015],[-1.02555,-0.55625],[1.1469,-1.12017]],[[122.86181,154.87482],[-1.8542,1.11058],[6.50709,-3.89745]],[[143.13847,153.74646],[-6.60149,-2.45373],[0.56269,-6.09645]],[[154.33255,141.88862],[-7.18829,-1.6616],[3.77125,0.87174]],[[162.97523,148.81763],[-2.25052,-2.88908],[0,0]],[163.16377,148.98618],[[163.69934,150.67405],[0.21909,-0.93319],[4.57741,-1.27316]],[[177.46819,151.0136],[-4.40027,-1.41843],[0,0]]],&quot;closed&quot;:true}]}" fill="#c752ea"/><path d="M210.41053,183.36651l1.12603,-0.94557c1.75479,-1.71678 2.47791,-2.59663 4.68282,-3.92811c7.59338,-4.5854 16.39396,-2.11873 23.36765,2.23119c6.77727,5.70775 9.70047,14.3789 8.68088,23.14905c-0.30141,2.59262 -0.84281,5.93904 -2.33973,8.17405c-5.14705,7.68493 -15.91696,12.21587 -24.96102,12.03884c-3.51834,-0.05708 -6.66255,-0.33083 -9.86867,-1.96702c-10.4667,-5.34152 -11.85974,-22.13515 -7.65179,-31.95683c1.11219,-2.59594 2.9281,-4.66467 4.93412,-6.54799c1.02009,0.59395 2.02971,-0.24763 2.02971,-0.24763z" data-paper-data="{&quot;noHover&quot;:false,&quot;origItem&quot;:[&quot;Path&quot;,{&quot;applyMatrix&quot;:true,&quot;segments&quot;:[[[116.92562,163.12475],[1.02009,0.59395],[-2.00601,1.88332]],[[112.00066,169.65961],[1.11219,-2.59594],[-4.20794,9.82168]],[[119.63512,201.55837],[-10.4667,-5.34152],[3.20612,1.63619]],[[129.48688,203.51904],[-3.51834,-0.05708],[9.04405,0.17703]],[[154.4008,191.50277],[-5.14705,7.68493],[1.49692,-2.23501]],[[156.73514,183.34399],[-0.30141,2.59262],[1.01958,-8.77015]],[[148.07169,160.2387],[6.77727,5.70775],[-6.97369,-4.34992]],[[124.74879,158.0136],[7.59338,-4.5854],[-2.20491,1.33148]],[[120.07654,161.93575],[1.75479,-1.71678],[0,0]],[118.95288,162.8794]],&quot;closed&quot;:true}]}" fill="#c752ea"/></g><g><g fill="#9966ff" stroke="#5d0079" stroke-width="5"><path d="M186.6049,195.04366c-2,0 -2,-2 -2,-2v-0.92602c0.00364,-3.44549 -0.09394,-8.21934 -2.4958,-10.93848c-2.88341,-3.2643 -7.78976,-6.43619 -10.59198,-1.27209c-2.62529,4.83805 -0.70179,12.36984 0.02883,17.48387c0,0 0.28284,1.97989 -1.69706,2.26274c-1.9799,0.28285 -2.26274,-1.69706 -2.26274,-1.69706c-0.98887,-6.92244 -3.44251,-17.64034 2.72181,-22.92005c5.56846,-4.76936 13.92816,0.31855 16.45103,6.06761c1.49715,3.41167 1.84236,7.33823 1.84591,11.01345v0.92602c0,0 0,2 -2,2z"/><path d="M205.64377,195.45133c0,2 -2,2 -2,2l-0.18935,-0.00822c-3.66293,0.33299 -7.24231,0.56382 -10.92294,0.56382c0,0 -2,0 -2,-2c0,-2 2,-2 2,-2c3.56042,0 7.01702,-0.22523 10.56081,-0.54739l0.55148,-0.00821c0,0 2,0 2,2z"/><path d="M201.02315,187.60372c-0.09294,-0.31559 -0.08699,-0.64919 -0.03966,-0.9894c-0.22443,-5.99087 -0.16284,-12.01344 0.29574,-17.98591c0,0 0.15339,-1.9941 2.1475,-1.84071c1.99411,0.15339 1.84072,2.1475 1.84072,2.1475c-0.21531,2.79386 -0.34012,5.59903 -0.38768,8.40667c1.72506,-1.61407 4.02856,-2.46028 6.85156,-1.7934c6.5506,1.54748 7.75911,11.27232 3.5839,15.68619c-3.26068,3.44707 -7.0813,3.19837 -11.19269,1.85432l-0.14946,-0.1033c-0.26678,0.13184 -0.56721,0.20594 -0.88494,0.20594c-1.10457,0 -2,-0.89543 -2,-2v-2.185c-0.02334,-0.46739 -0.04502,-0.93503 -0.06499,-1.4029zM205.79047,189.42958c2.37827,0.78327 4.58664,1.19731 6.55438,-0.87389c2.15596,-2.26931 2.02485,-8.23041 -1.60185,-9.13126c-5.22713,-1.29838 -4.87368,5.72168 -5.65485,8.50025v1.13321c0.30039,0.09812 0.54505,0.25366 0.70233,0.37168z"/><path d="M224.54775,183.4321c-0.0882,0.13216 -0.15608,0.20759 -0.15608,0.20759c-1.14112,1.25771 -1.76717,1.72541 -2.45664,3.22117c-0.31767,0.68915 -0.6064,1.40067 -0.77501,2.14054c-0.77429,3.39764 2.36223,6.21776 5.6293,4.30946c2.70972,-1.58275 4.2559,-5.82712 1.86326,-8.36251c-0.85532,-0.90635 -2.11211,-1.20369 -3.22391,-1.58886zM220.90325,181.53123c-0.01694,-1.84011 1.86878,-1.96583 1.86878,-1.96583l3.1656,-0.17339c2.30727,0.75209 3.87303,0.96761 5.66593,2.85604c4.25052,4.477 1.94024,11.75111 -2.95206,14.60291c-4.45284,2.59563 -10.27239,0.0343 -11.58533,-4.84275c-0.55283,-2.05356 0.41024,-5.01169 1.25279,-6.85733c0.79215,-1.73524 1.46373,-2.40105 2.58428,-3.61965z"/><path d="M247.72255,185.22782c-2,0 -2,-2 -2,-2l0.02721,-0.88443c0.42371,-2.49195 0.62794,-5.31985 -0.40253,-7.73119c-1.19865,-2.8049 -4.43221,-2.81045 -5.95801,-0.28151c-1.32237,2.19177 -1.84584,4.73884 -2.29287,7.21765c0,0 -0.35777,1.96774 -2.32551,1.60996c-1.96774,-0.35778 -1.60997,-2.32551 -1.60997,-2.32551c0.68794,-3.756 1.63815,-8.79278 5.09392,-11.10584c0.96748,-0.64757 2.10699,-1.08415 3.25812,-1.25814c8.08361,-1.22177 9.07635,9.07412 8.18243,14.53221l0.02722,0.22681c0,0 0,2 -2,2z"/><path d="M260.6869,201.89624c-2,0 -2,-2 -2,-2l0.02721,-0.88443c0.42371,-2.49195 0.62793,-5.31984 -0.40253,-7.73119c-1.19865,-2.8049 -4.43221,-2.81045 -5.95801,-0.28152c-1.32237,2.19177 -1.84584,4.73884 -2.29287,7.21766c0,0 -0.35777,1.96774 -2.32551,1.60996c-1.96774,-0.35778 -1.60997,-2.32551 -1.60997,-2.32551c0.68794,-3.756 1.63815,-8.79278 5.09391,-11.10584c0.96748,-0.64757 2.10699,-1.08415 3.25812,-1.25814c8.08361,-1.22177 9.07635,9.07412 8.18243,14.5322l0.02722,0.22681c0,0 0,2 -2,2z"/><g><path d="M265.11802,193.5521c-1.99007,-0.199 -1.79107,-2.18908 -1.79107,-2.18908l0.23499,-2.13811c0.84172,-3.36636 1.5576,-6.65902 2.197,-10.06978c0,0 0.36857,-1.96574 2.33432,-1.59717c1.96575,0.36857 1.59717,2.33432 1.59717,2.33432c-0.65379,3.48626 -1.3878,6.86179 -2.24792,10.30277l-0.13541,1.56598c0,0 -0.199,1.99008 -2.18908,1.79107z"/><path d="M267.02112,172.11551c0,-1.10457 0.89543,-2 2,-2c1.10457,0 2,0.89543 2,2c0,1.10457 -0.89543,2 -2,2c-1.10457,0 -2,-0.89543 -2,-2z"/></g><path d="M293.37121,199.22596c0.48508,1.94028 -1.4552,2.42536 -1.4552,2.42536l-0.86814,0.21267c-5.3606,0.9745 -9.06739,0.66097 -14.17428,-1.55425c-2.3813,-1.94655 -3.73981,-2.67536 -5.10402,-5.84752c-3.60359,-8.37939 6.00349,-20.36559 14.981,-17.00072c5.48065,2.05421 4.6973,7.56725 0.98801,10.798c-3.40849,2.96876 -7.29479,3.52974 -11.54312,2.66525c0,0 -0.72304,-0.15493 -1.19562,-0.71605c-0.03358,0.99578 0.13035,1.97983 0.53306,2.89802c0.82747,1.88666 1.96331,2.59338 3.41542,3.78315c4.20549,1.7728 7.01721,1.8327 11.38402,1.03862l0.61351,-0.15775c0,0 1.94028,-0.48508 2.42536,1.4552zM275.68422,187.16057c0.65136,-0.2966 1.34938,-0.14703 1.34938,-0.14703c3.05111,0.69703 5.59374,0.30647 8.0886,-1.77967c1.3342,-1.11563 2.84546,-3.27704 0.2472,-4.01839c-3.94442,-1.12546 -8.08369,2.05066 -9.68517,5.94509z"/><path d="M323.00401,193.66981c0.48508,1.94028 -1.4552,2.42536 -1.4552,2.42536l-0.96158,0.22738c-2.94952,0.39157 -5.81016,1.01812 -8.72892,1.60191c-2.98001,0.59581 -7.42712,2.14657 -10.52487,1.56169c-1.75303,-0.33099 -4.11631,-0.22576 -5.06175,-1.73865c-0.89047,-1.4249 2.21299,-4.86298 3.00988,-6.01751c3.20162,-4.63854 7.45538,-10.73534 8.53278,-16.33669c0.98741,-5.1335 -1.41463,-5.80473 -5.54857,-4.17497c-1.15134,0.4539 -2.28999,0.94983 -3.38101,1.53404c-0.81665,0.4373 -3.31322,2.29295 -4.05503,2.83264c0,0 -1.61747,1.17635 -2.79381,-0.44112c-1.17635,-1.61747 0.44112,-2.79381 0.44112,-2.79381c5.13031,-3.72987 16.17286,-11.01368 19.39633,-1.15091c1.97553,6.04448 -4.09366,14.57208 -7.07373,19.37786c-0.72292,1.16583 -1.46504,2.32052 -2.24343,3.45006c-0.32886,0.47723 -0.61419,1.00418 -0.97559,1.45661c0.94404,-0.13448 1.97711,-0.11398 2.39826,-0.16691c1.98292,-0.24923 5.22714,-0.94097 7.09498,-1.31466c3.00369,-0.6007 5.94927,-1.23812 8.98474,-1.6445l0.52007,-0.14303c0,0 1.94028,-0.48508 2.42536,1.4552z"/></g><g fill="#c752ea" stroke="none" stroke-width="0.5"><path d="M186.6049,195.04366c-2,0 -2,-2 -2,-2v-0.92602c0.00364,-3.44549 -0.09394,-8.21934 -2.4958,-10.93848c-2.88341,-3.2643 -7.78976,-6.43619 -10.59198,-1.27209c-2.62529,4.83805 -0.70179,12.36985 0.02883,17.48387c0,0 0.28284,1.97989 -1.69706,2.26274c-1.9799,0.28285 -2.26274,-1.69706 -2.26274,-1.69706c-0.98887,-6.92244 -3.44251,-17.64034 2.72181,-22.92005c5.56846,-4.76936 13.92816,0.31856 16.45104,6.06761c1.49715,3.41167 1.84235,7.33823 1.8459,11.01345v0.92602c0,0 0,2 -2,2z"/><path d="M205.64376,195.45133c0,2 -2,2 -2,2l-0.18935,-0.00822c-3.66293,0.33299 -7.24231,0.56382 -10.92294,0.56382c0,0 -2,0 -2,-2c0,-2 2,-2 2,-2c3.56042,0 7.01702,-0.22524 10.56081,-0.5474l0.55149,-0.00821c0,0 2,0 2,2z"/><path d="M201.02315,187.60372c-0.09294,-0.31559 -0.08699,-0.64919 -0.03966,-0.9894c-0.22443,-5.99087 -0.16284,-12.01344 0.29575,-17.98591c0,0 0.15339,-1.9941 2.1475,-1.84071c1.99411,0.15339 1.84072,2.1475 1.84072,2.1475c-0.21531,2.79386 -0.34012,5.59903 -0.38768,8.40667c1.72506,-1.61407 4.02857,-2.46028 6.85156,-1.7934c6.5506,1.54748 7.75911,11.27232 3.58389,15.68619c-3.26068,3.44707 -7.0813,3.19837 -11.19269,1.85432l-0.14945,-0.1033c-0.26678,0.13184 -0.56721,0.20594 -0.88494,0.20594c-1.10457,0 -2,-0.89543 -2,-2v-2.185c-0.02334,-0.46739 -0.04502,-0.93503 -0.065,-1.4029zM205.79047,189.42958c2.37827,0.78327 4.58664,1.19731 6.55437,-0.87389c2.15596,-2.26931 2.02485,-8.23041 -1.60185,-9.13126c-5.22713,-1.29838 -4.87367,5.72168 -5.65485,8.50025v1.13321c0.30039,0.09812 0.54505,0.25366 0.70233,0.37168z"/><path d="M224.54775,183.4321c-0.0882,0.13216 -0.15608,0.20759 -0.15608,0.20759c-1.14112,1.25771 -1.76717,1.72541 -2.45664,3.22117c-0.31767,0.68915 -0.6064,1.40067 -0.77501,2.14054c-0.77429,3.39764 2.36223,6.21776 5.6293,4.30946c2.70972,-1.58275 4.25589,-5.82712 1.86325,-8.36251c-0.85532,-0.90635 -2.11211,-1.20369 -3.22391,-1.58886zM220.90325,181.53123c-0.01694,-1.84011 1.86878,-1.96583 1.86878,-1.96583l3.1656,-0.17339c2.30727,0.75209 3.87303,0.96761 5.66593,2.85604c4.25051,4.477 1.94024,11.75111 -2.95206,14.60291c-4.45284,2.59563 -10.27239,0.0343 -11.58533,-4.84275c-0.55283,-2.05356 0.41024,-5.01169 1.25279,-6.85733c0.79215,-1.73524 1.46373,-2.40105 2.58428,-3.61965z"/><path d="M247.72254,185.22782c-2,0 -2,-2 -2,-2l0.02721,-0.88443c0.42371,-2.49195 0.62794,-5.31985 -0.40253,-7.73119c-1.19865,-2.8049 -4.43222,-2.81045 -5.95802,-0.28151c-1.32237,2.19177 -1.84584,4.73884 -2.29286,7.21765c0,0 -0.35777,1.96774 -2.32551,1.60996c-1.96774,-0.35778 -1.60997,-2.32551 -1.60997,-2.32551c0.68794,-3.756 1.63815,-8.79278 5.09392,-11.10584c0.96748,-0.64757 2.10699,-1.08415 3.25812,-1.25814c8.08361,-1.22177 9.07635,9.07412 8.18243,14.53221l0.02721,0.22681c0,0 0,2 -2,2z"/><path d="M260.68689,201.89624c-2,0 -2,-2 -2,-2l0.02721,-0.88443c0.42371,-2.49195 0.62793,-5.31984 -0.40253,-7.73119c-1.19865,-2.8049 -4.43221,-2.81045 -5.95801,-0.28152c-1.32237,2.19177 -1.84585,4.73884 -2.29287,7.21766c0,0 -0.35777,1.96774 -2.32551,1.60996c-1.96774,-0.35778 -1.60997,-2.32551 -1.60997,-2.32551c0.68793,-3.756 1.63815,-8.79278 5.09391,-11.10584c0.96748,-0.64757 2.107,-1.08415 3.25812,-1.25813c8.08361,-1.22177 9.07635,9.07411 8.18243,14.5322l0.02721,0.22681c0,0 0,2 -2,2z"/><g><path d="M265.11802,193.5521c-1.99008,-0.199 -1.79107,-2.18908 -1.79107,-2.18908l0.23499,-2.13811c0.84172,-3.36636 1.55761,-6.65902 2.197,-10.06978c0,0 0.36858,-1.96574 2.33432,-1.59717c1.96575,0.36857 1.59717,2.33432 1.59717,2.33432c-0.6538,3.48626 -1.3878,6.86179 -2.24792,10.30277l-0.13541,1.56598c0,0 -0.199,1.99008 -2.18908,1.79107z"/><path d="M267.02112,172.11551c0,-1.10457 0.89543,-2 2,-2c1.10457,0 2,0.89543 2,2c0,1.10457 -0.89543,2 -2,2c-1.10457,0 -2,-0.89543 -2,-2z"/></g><path d="M293.37121,199.22596c0.48508,1.94028 -1.4552,2.42536 -1.4552,2.42536l-0.86814,0.21267c-5.3606,0.9745 -9.06739,0.66097 -14.17428,-1.55425c-2.3813,-1.94655 -3.73981,-2.67536 -5.10402,-5.84752c-3.60359,-8.37938 6.00349,-20.36559 14.981,-17.00071c5.48065,2.05421 4.69729,7.56725 0.98801,10.798c-3.40849,2.96876 -7.29479,3.52974 -11.54311,2.66525c0,0 -0.72305,-0.15493 -1.19563,-0.71605c-0.03358,0.99578 0.13035,1.97983 0.53306,2.89803c0.82747,1.88666 1.96331,2.59338 3.41542,3.78314c4.20549,1.7728 7.01721,1.8327 11.38402,1.03862l0.61351,-0.15775c0,0 1.94028,-0.48508 2.42536,1.45521zM275.68421,187.16057c0.65135,-0.2966 1.34938,-0.14703 1.34938,-0.14703c3.05111,0.69703 5.59373,0.30647 8.08859,-1.77967c1.3342,-1.11563 2.84547,-3.27704 0.2472,-4.01839c-3.94442,-1.12546 -8.0837,2.05066 -9.68517,5.94509z"/><path d="M323.00401,193.66981c0.48508,1.94028 -1.4552,2.42536 -1.4552,2.42536l-0.96158,0.22738c-2.94952,0.39156 -5.81017,1.01812 -8.72892,1.6019c-2.98001,0.5958 -7.42712,2.14657 -10.52487,1.56169c-1.75304,-0.33099 -4.1163,-0.22577 -5.06175,-1.73865c-0.89047,-1.4249 2.21299,-4.86297 3.00988,-6.01751c3.20162,-4.63854 7.45539,-10.73535 8.53278,-16.33669c0.98741,-5.1335 -1.41464,-5.80473 -5.54857,-4.17497c-1.15134,0.4539 -2.28999,0.94984 -3.38101,1.53404c-0.81665,0.43729 -3.31322,2.29295 -4.05504,2.83265c0,0 -1.61747,1.17635 -2.79382,-0.44112c-1.17635,-1.61747 0.44112,-2.79382 0.44112,-2.79382c5.13031,-3.72988 16.17286,-11.01367 19.39633,-1.15091c1.97553,6.04448 -4.09367,14.57208 -7.07373,19.37786c-0.72293,1.16582 -1.46505,2.32051 -2.24343,3.45006c-0.32886,0.47723 -0.61419,1.00418 -0.9756,1.45662c0.94404,-0.13448 1.9771,-0.11398 2.39825,-0.16692c1.98292,-0.24923 5.22714,-0.94097 7.09498,-1.31466c3.00369,-0.6007 5.94926,-1.23812 8.98473,-1.64449l0.52007,-0.14304c0,0 1.94028,-0.48508 2.42536,1.4552z"/></g></g></g></g></g></svg>