<svg version="1.1" xmlns="http://www.w3.org/2000/svg" xmlns:xlink="http://www.w3.org/1999/xlink" width="264.27479" height="162.47365" viewBox="0,0,264.27479,162.47365"><g transform="translate(-100.98366,-89.06825)"><g data-paper-data="{&quot;isPaintingLayer&quot;:true}" fill-rule="nonzero" stroke-linejoin="miter" stroke-miterlimit="10" stroke-dasharray="" stroke-dashoffset="0" style="mix-blend-mode: normal"><path d="M245.87064,207.33789c-0.93383,-2.36622 -0.87449,-5.1435 0.56232,-7.50692c1.35352,-2.22643 3.96685,-2.51566 6.14177,-3.14983c2.04568,0.1649 4.01631,0.05642 5.86024,1.1599c4.99487,2.98912 6.46965,9.84641 1.57412,13.89759c-3.02424,2.50263 -5.26318,2.36069 -8.66969,0.96673c-0.3808,-0.15582 -0.94386,-0.46466 -1.47578,-0.87871c-0.31896,-0.16295 -0.62462,-0.34686 -0.91591,-0.54949c-0.2147,0.69029 -0.5167,1.36543 -0.72774,2.05501c-0.89259,2.91649 -1.6509,7.8307 -6.09526,8.12398c-1.46161,0.09645 -1.95,-2.19003 -2.83882,-3.35433c-1.42198,-1.86271 -2.62376,-4.03788 -3.86756,-6.02752c0,0 -1.06,-1.696 0.636,-2.756c1.696,-1.06 2.75599,0.636 2.75599,0.636c0.81149,1.29868 1.66289,2.57198 2.49596,3.85693c0.47819,0.73758 1.11241,1.40195 1.40791,2.22983c0.16235,0.45484 -0.50012,1.71004 -0.09597,1.44566c0.57728,-0.37762 0.58377,-1.25332 0.80221,-1.90764c0.11172,-0.33464 1.79543,-6.38886 1.94798,-6.73381c0.19394,-0.43853 0.33953,-0.97814 0.50223,-1.50737z" fill="#000000" stroke="none" stroke-width="0.5" stroke-linecap="butt"/><path d="M182.06833,242.80558l1.76813,-2.52942c0.98031,-0.43183 2.12703,-0.87193 3.33468,-1.21626c3.22564,-1.89112 6.66336,-3.04778 10.66306,-2.35261c0.66446,0.11549 1.6936,0.46784 2.67439,0.9677c0.00963,-0.65194 0.03401,-1.27021 0.11169,-1.80162c0.6447,-4.40984 1.14756,-8.32838 0.78613,-12.81388c0,0 -0.15949,-1.99363 1.83414,-2.15312c1.99363,-0.15949 2.15312,1.83414 2.15312,1.83414c0.43553,5.48131 -0.40733,10.4164 -1.03533,15.81679c-0.4048,3.48105 0.03994,5.6866 -2.98204,8.13168c-3.29062,2.66242 -10.28557,5.11514 -14.589,4.60496c-2.47851,-0.29383 -4.07404,-1.39318 -4.68092,-3.0339c-0.6868,-0.31669 -1.16348,-1.01127 -1.16348,-1.81718c0,-0.60423 0.26795,-1.14588 0.6915,-1.51261l0.38276,-0.33491c-0.41586,-0.85569 0.05116,-1.78976 0.05116,-1.78976z" fill="#000000" stroke="none" stroke-width="0.5" stroke-linecap="butt"/><path d="M218.50926,238.09413c0.49778,-0.14589 1.04748,-0.26596 1.64194,-0.37479c4.58548,-0.83949 9.64524,0.97522 13.67908,2.9125c1.30093,1.02653 4.49035,3.15825 4.69156,5.06449c0.46511,4.40639 -4.26445,5.70093 -7.47377,5.82947c-5.00292,0.20038 -11.10609,-1.46359 -14.6202,-5.34486c-2.29977,-2.54005 -2.04001,-5.63083 -1.88233,-8.7554c0.27545,-5.45855 0.56878,-10.88718 0.56878,-16.35411c0,0 0,-2 2,-2c2,0 2,2 2,2c0,5.53538 -0.28585,11.03358 -0.57408,16.56018c-0.00781,0.14987 -0.01859,0.30435 -0.03098,0.46251z" fill="#000000" stroke="none" stroke-width="0.5" stroke-linecap="butt"/><g><g stroke-linecap="butt"><path d="M111.65745,166.72834c-3.73707,-33.02624 6.27286,-61.15586 49.36168,-66.15045c44.29551,-5.13447 59.15774,20.42189 62.8948,53.44812c0.49581,4.38177 -26.44934,7.27996 -26.73143,4.78703c-1.92987,-17.05513 -6.52459,-36.49966 -33.01748,-32.63134c-29.35246,4.24878 -26.88295,22.13584 -24.95308,39.19097c0.24057,2.12598 -27.14319,4.99052 -27.55449,1.35567z" fill="#bababa" stroke="none" stroke-width="0"/><path d="M121.51986,167.00805c-1.11707,-9.87212 3.52532,-48.28631 44.38502,-52.09355c37.97767,-2.51511 45.29559,35.16605 45.29559,35.16605c0,0 -12.88216,10.3925 -13.01633,9.20679c-1.92987,-17.05513 -8.1853,-37.52381 -34.6782,-33.65549c-29.35246,4.24879 -25.22223,23.15999 -23.29237,40.21512c0.24057,2.12599 -18.28241,4.79592 -18.69371,1.16108z" fill="#817da1" stroke="none" stroke-width="0"/><path d="M111.46359,166.56664c-3.73707,-33.02624 6.27286,-61.15586 49.36168,-66.15045c44.29551,-5.13447 59.15773,20.42189 62.8948,53.44812c0.49581,4.38177 -26.44934,7.27996 -26.73142,4.78703c-1.92987,-17.05513 -6.52459,-36.49966 -33.01748,-32.63134c-29.35246,4.24878 -26.88295,22.13584 -24.95308,39.19097c0.24057,2.12599 -27.14319,4.99052 -27.55449,1.35568z" fill="none" stroke="#262338" stroke-width="4"/></g><g stroke-linecap="butt"><path d="M241.87961,182.51661c1.70583,19.4356 -7.95762,36.65551 -28.03424,37.92288c-21.70781,1.37034 -32.50576,-13.02406 -34.21159,-32.45967c-1.70583,-19.4356 6.00142,-35.59375 28.03424,-37.92288c22.8487,-2.41536 32.50576,13.02405 34.21159,32.45967z" fill="#4d12c6" stroke="none" stroke-width="0"/><path d="M241.87961,182.51661c1.70583,19.4356 -6.32296,36.51203 -23.4465,37.52023c-18.51478,1.0901 -30.035,-13.24091 -31.74084,-32.67652c-1.70583,-19.4356 4.27869,-34.49444 23.05864,-36.53805c22.08346,-2.11116 30.42287,12.25874 32.1287,31.69435z" fill="#b216ff" stroke="none" stroke-width="0"/><path d="M241.87961,182.51661c1.70583,19.4356 -7.95762,36.65551 -28.03424,37.92288c-21.70781,1.37034 -32.50576,-13.02406 -34.21159,-32.45967c-1.70583,-19.4356 6.00142,-35.59375 28.03424,-37.92288c22.8487,-2.41536 32.50576,13.02405 34.21159,32.45967z" fill="none" stroke="#130857" stroke-width="4"/><path d="M240.09178,183.23603c1.43662,16.36851 -8.18004,30.58406 -21.47945,31.75133c-13.29941,1.16727 -25.24533,-11.15577 -26.68197,-27.52427c-1.43662,-16.3685 8.18004,-30.58405 21.47945,-31.75132c13.29941,-1.16727 25.24534,11.15577 26.68197,27.52426z" fill="#e0e0e0" stroke="none" stroke-width="0"/><path d="M239.77157,185.48932c1.37963,15.71895 -8.945,28.54972 -21.71666,29.67067c-12.77165,1.12095 -24.24353,-10.71309 -25.62316,-26.43205c-1.37963,-15.71895 4.87129,-30.60009 20.4656,-31.96875c12.77165,-1.12095 25.49461,13.01117 26.87423,28.73014z" fill="#cfcfcf" stroke="none" stroke-width="0"/></g><g><g stroke-linecap="butt"><path d="M164.63484,187.84864c3.17689,19.24992 -5.15091,37.15398 -25.07331,39.94236c-21.54104,3.01494 -33.40099,-10.51786 -36.57787,-29.76781c-3.1769,-19.24992 3.281,-35.94673 25.07331,-39.94235c22.59929,-4.14358 33.40099,10.51787 36.57788,29.76781z" fill="#4d12c6" stroke="none" stroke-width="0"/><path d="M164.63484,187.84864c3.17689,19.24992 -3.53188,36.88679 -20.5294,39.19247c-18.37852,2.49302 -30.95383,-10.92172 -34.13074,-30.17167c-3.1769,-19.24992 1.64673,-34.71975 20.21725,-38.18366c21.85935,-3.78214 31.26596,9.91294 34.44287,29.16286z" fill="#b216ff" stroke="none" stroke-width="0"/><path d="M164.63484,187.84864c3.17689,19.24992 -5.15091,37.15398 -25.07331,39.94236c-21.54104,3.01494 -33.40099,-10.51786 -36.57787,-29.76781c-3.1769,-19.24992 3.281,-35.94673 25.07331,-39.94235c22.59929,-4.14358 33.40099,10.51787 36.57788,29.76781z" fill="none" stroke="#130857" stroke-width="4"/></g><g><path d="M162.50906,190.00243c2.69864,16.35205 -3.28169,31.3803 -18.22892,33.42282c-16.16168,2.20845 -25.30295,-9.44112 -28.00159,-25.79318c-2.69866,-16.35204 1.89386,-30.3879 18.22892,-33.42281c16.93997,-3.14729 25.30295,9.44111 28.0016,25.79317z" fill="#686868" stroke="none" stroke-width="0" stroke-linecap="butt"/><path d="M162.33297,188.21559c2.46643,14.94501 -2.99931,28.68012 -16.66038,30.54688c-14.77102,2.01843 -23.12574,-8.62875 -25.59216,-23.57376c-2.46644,-14.94501 1.73091,-27.77313 16.66038,-30.54687c15.48235,-2.87647 23.12574,8.62876 25.59216,23.57375z" fill="#7c7c7c" stroke="none" stroke-width="0" stroke-linecap="butt"/><path d="M132.5507,222.23147l-7.3355,-54.10326" fill="none" stroke="#0c0c0c" stroke-width="4" stroke-linecap="round"/><path d="M136.0389,164.7485l8.10565,57.39061" fill="none" stroke="#0c0c0c" stroke-width="4" stroke-linecap="round"/><path d="M116.01355,183.5485l41.67306,-5.82953" fill="none" stroke="#0c0c0c" stroke-width="4" stroke-linecap="round"/><path d="M161.94263,191.64788l-45.96481,6.31944" fill="none" stroke="#0c0c0c" stroke-width="4" stroke-linecap="round"/><path d="M161.1268,204.07922l-41.06689,6.8666" fill="none" stroke="#0c0c0c" stroke-width="4" stroke-linecap="round"/><path d="M153.62251,218.6839l-7.67827,-54.36461" fill="none" stroke="#0c0c0c" stroke-width="4" stroke-linecap="round"/><path d="M161.82144,189.31424c2.69866,16.35204 -3.28169,31.38029 -18.22894,33.4228c-16.16169,2.20847 -25.30295,-9.44114 -28.0016,-25.79318c-2.69864,-16.35205 1.89387,-30.38789 18.22894,-33.4228c16.93997,-3.1473 25.30295,9.44112 28.0016,25.79318z" fill="none" stroke="#363636" stroke-width="4" stroke-linecap="butt"/></g></g></g><path d="M201.00744,169.75122c1.94878,-0.44971 2.3985,1.49907 2.3985,1.49907l0.37194,1.63875c0.45281,3.02809 0.72374,5.96581 0.59269,9.04115c-0.0645,1.51372 0.39255,3.21398 -0.35584,4.53133c-0.09907,0.17439 -0.2114,0.33748 -0.3347,0.49122l0.04154,0.0323l-1.58734,2.04087c-0.36539,0.47917 -0.94226,0.78839 -1.59136,0.78839c-1.07352,0 -1.9495,-0.84581 -1.99789,-1.90738l-0.11362,-2.15893l0.00409,-0.00022l-0.00471,-0.01241c-0.17341,-4.38171 0.10744,-8.45276 0.82507,-12.76415c0,0 0.05842,-0.35054 0.27378,-0.73146l-0.0212,-0.09003c0,0 -0.44971,-1.94878 1.49907,-2.39849z" fill="#000000" stroke="none" stroke-width="0.5" stroke-linecap="butt"/><path d="M223.05296,162.40751c0.09282,-0.2624 0.26031,-0.53492 0.53283,-0.80744c1.41422,-1.41422 2.82843,0 2.82843,0l0.67285,1.19969c0.49197,2.95196 1.23361,6.13883 1.28115,9.12995c0.02149,1.3524 0.41587,2.87356 -0.25172,4.04989c-0.80143,1.41216 -2.1644,3.14589 -3.78611,3.06495c-1.37802,-0.06877 -1.84044,-2.11168 -2.39829,-3.37362c-1.33515,-3.02026 -0.53209,-8.06469 -0.53209,-11.28523c0,0 0,-1.76137 1.65296,-1.9782z" fill="#000000" stroke="none" stroke-width="0.5" stroke-linecap="butt"/><path d="M204.48572,154.21429c-1.6,1.2 -2.8,-0.4 -2.8,-0.4l-0.61552,-0.82601c-0.81878,-0.97459 -2.47346,-3.08937 -3.57334,-3.8486c-3.00338,-2.07315 -5.10435,-0.49959 -6.75764,2.26563c-2.65848,4.44643 -3.78394,9.47562 -4.93328,14.4587c0,0 -0.44972,1.94878 -2.3985,1.49906c-1.94878,-0.44972 -1.49907,-2.3985 -1.49907,-2.3985c0.30317,-1.31305 0.57781,-2.63303 0.90951,-3.93917c1.8539,-7.30015 6.76973,-21.80923 16.88529,-15.22222c1.53296,0.99823 3.24394,3.20712 4.42667,4.60854l0.75589,1.00257c0,0 1.2,1.60001 -0.4,2.8z" fill="#000000" stroke="none" stroke-width="0.5" stroke-linecap="butt"/><path d="M223.84415,218.72634c-1.88349,0.67267 -2.55616,-1.21081 -2.55616,-1.21081l-0.6491,-1.88044c-0.32813,-1.71668 -0.36043,-3.19288 -1.53494,-4.60319c-1.52526,-1.83149 -5.07436,-1.23492 -6.96623,-0.63153c-4.69669,1.49796 -7.66622,6.19368 -9.97824,10.18741c0,0 -1.00207,1.73086 -2.73293,0.72879c-1.73085,-1.00207 -0.72878,-2.73293 -0.72878,-2.73293c3.27808,-5.66182 8.55431,-12.79009 15.98015,-12.76902c2.0591,0.00584 5.68769,0.66033 7.30394,2.43921c1.99572,2.19654 2.02887,3.94052 2.57935,6.5968l0.49375,1.31956c0,0 0.67267,1.88348 -1.21081,2.55615z" fill="#000000" stroke="none" stroke-width="0.5" stroke-linecap="butt"/><path d="M182.44683,188.37957c0.32537,-0.1227 0.6552,-0.23886 0.98896,-0.34896c3.03506,-0.34203 6.98531,-0.86596 9.52062,1.48803c5.34921,4.96665 -0.73154,16.53443 -6.18984,18.81031c-2.32151,0.96797 -5.01414,0.96525 -7.36371,0.14971c-0.06588,0.27671 -0.15679,0.45856 -0.15679,0.45856l-0.15073,0.29806c-2.05387,3.73171 -4.42754,7.2971 -6.35013,11.10315c-0.33111,0.65547 -0.55811,1.35876 -0.81745,2.0458c-0.17228,0.45642 -0.29847,0.92963 -0.47705,1.38362c-0.05704,0.14499 -0.37131,0.46876 -0.22776,0.40818c7.35032,-3.10176 14.38174,-8.01718 20.02002,-13.66166c0,0 1.41422,-1.41421 2.82843,0.00001c1.41421,1.41422 0,2.82842 0,2.82842c-4.88868,4.88357 -10.52597,9.01145 -16.69622,12.15286c-1.42285,0.7244 -6.18603,3.06965 -7.85519,2.29975c-3.03314,-1.39904 -2.01845,-4.61155 -1.39053,-6.66533c1.50598,-4.92571 4.99642,-9.3382 7.46102,-13.82248l0.07782,-0.15909c0,0 0.14724,-0.29451 0.44174,-0.5848c-1.26745,-1.14183 -2.17951,-2.64664 -2.48605,-4.45914c-0.61484,-2.08365 -0.48442,-4.52494 0.19564,-6.08249c0.78079,-1.78827 1.85653,-3.2355 3.1488,-4.41512c0.82006,-1.073 1.73727,-2.10003 2.6959,-3.11301c0,0 1.34914,-1.42014 2.78251,-0.11436z" fill="#000000" stroke="none" stroke-width="0.5" stroke-linecap="butt"/><path d="M259.5014,151.8557c0.05363,-0.0849 0.10738,-0.16972 0.16127,-0.25444c0,0 1.07374,-1.68733 2.76107,-0.61359c1.68733,1.07375 0.61359,2.76107 0.61359,2.76107c-0.09648,0.15152 -0.19253,0.30336 -0.28816,0.45549c0.00056,0.0233 0.00085,0.04689 0.00085,0.07076c0,1.10763 -0.61342,1.60183 -1.16082,1.82234c-2.63938,4.41667 -4.96259,9.0513 -7.15943,13.70802c0.79593,-0.45759 1.68628,-0.84931 2.62582,-1.31922c3.31264,-1.65682 6.70493,-3.19762 10.18368,-4.48057c1.75624,-0.64769 5.01138,-2.12349 6.94285,-0.50599c1.8735,1.56895 2.90113,7.2099 4.12287,9.41622c5.22449,9.4348 13.80569,14.11943 24.1234,15.85709c24.89854,4.22806 52.96689,-12.62204 57.85186,-37.98912c3.58483,-18.39633 -2.42975,-38.51389 -18.83896,-48.74473c-6.33901,-3.95225 -13.75583,-5.92031 -20.89118,-7.80442c-20.32835,-2.95814 -45.1148,-1.25765 -59.50843,15.373c-3.30667,3.82058 -6.12743,7.31771 -7.35083,12.23944c-1.6592,6.42671 -2.30174,13.10888 -1.16827,19.69762c0.04427,0.25738 1.26104,6.20271 1.55491,6.72243c1.11104,1.96493 3.33086,2.90727 5.42394,3.58861zM257.40527,155.32436c-2.68911,-1.00261 -5.20678,-2.37593 -6.78272,-5.04145c-0.62198,-1.05201 -1.82948,-6.81598 -2.04506,-8.07757c-1.22152,-7.14835 -0.54803,-14.37734 1.23936,-21.35444c1.46961,-5.55851 4.44792,-9.53676 8.20205,-13.863c15.41217,-17.76089 41.52154,-19.88112 63.33103,-16.6725c7.6037,1.99456 15.45739,4.12068 22.20764,8.32933c17.84501,11.12604 24.49133,32.86965 20.64999,52.89808c-5.3274,27.46992 -35.40621,45.76578 -62.44884,41.17363c-11.52895,-1.97272 -21.12941,-7.36737 -26.96367,-17.8822c-1.40206,-2.52688 -1.79764,-5.7508 -3.07714,-8.18381c-0.11452,-0.21776 -5.7013,2.23123 -5.81088,2.27577c-4.25763,1.7307 -8.02418,3.92804 -12.12771,5.49732l0.21647,0.46386l-2.9617,1.38213c-0.26657,0.13158 -0.56669,0.20551 -0.88407,0.20551c-1.10457,0 -2,-0.89543 -2,-2c0,-0.29551 0.06409,-0.57605 0.17913,-0.82848l1.18259,-2.75936l0.007,0.00301l0.00441,-0.02912c2.42989,-5.25088 4.97353,-10.51447 7.88213,-15.53669z" fill="#000000" stroke="none" stroke-width="0.5" stroke-linecap="butt"/><path d="M254.02791,148.27373c-0.29387,-0.51972 -1.51108,-6.4714 -1.55536,-6.72878c-1.13346,-6.58873 -0.48787,-13.28839 1.17133,-19.7151c1.22341,-4.92172 4.05004,-8.43016 7.35671,-12.25074c14.39363,-16.63065 39.23536,-18.35058 59.56371,-15.39244c7.13536,1.88411 14.57117,3.86273 20.91018,7.81498c16.40921,10.23084 22.4398,30.39454 18.85498,48.79087c-4.88497,25.36709 -33.00693,42.25823 -57.90547,38.03017c-10.31771,-1.73766 -18.92784,-6.43482 -24.15233,-15.86962c-1.22174,-2.20631 -2.25728,-7.85625 -4.13078,-9.42521c-1.93147,-1.6175 -5.18868,-0.14497 -6.94492,0.50272c-3.47875,1.28295 -6.87156,2.82282 -10.1842,4.47964c-0.93953,0.46991 -1.82993,0.86154 -2.62586,1.31913c2.19684,-4.65672 4.51643,-9.29968 7.15581,-13.71635c0.5474,-0.22051 1.16037,-0.71614 1.16037,-1.82377c0,-0.02387 -0.00031,-0.04753 -0.00087,-0.07083c0.09564,-0.15213 0.19158,-0.30435 0.28806,-0.45587c0,0 1.07298,-1.69035 -0.61435,-2.76409c-1.68733,-1.07375 -2.66342,0.59203 -2.66342,0.59203c-0.05388,0.08472 -0.20524,0.19131 -0.25887,0.27621c-2.09308,-0.68133 -4.31368,-1.62803 -5.42472,-3.59297z" data-paper-data="{&quot;noHover&quot;:false,&quot;origItem&quot;:[&quot;Path&quot;,{&quot;applyMatrix&quot;:true,&quot;segments&quot;:[[[259.5014,151.8557],[-2.09308,-0.68133],[0.05363,-0.0849]],[[259.66267,151.60126],[-0.05388,0.08472],[0,0]],[[262.42374,150.98768],[-1.68733,-1.07375],[1.68733,1.07375]],[[263.03733,153.74875],[0,0],[-0.09648,0.15152]],[[262.74916,154.20424],[0.09564,-0.15213],[0.00056,0.0233]],[[262.75001,154.275],[0,-0.02387],[0,1.10763]],[[261.58919,156.09734],[0.5474,-0.22051],[-2.63938,4.41667]],[[254.42976,169.80536],[2.19684,-4.65672],[0.79593,-0.45759]],[[257.05557,168.48615],[-0.93953,0.46991],[3.31264,-1.65682]],[[267.23925,164.00557],[-3.47875,1.28295],[1.75624,-0.64769]],[[274.1821,163.49958],[-1.93147,-1.6175],[1.8735,1.56895]],[[278.30498,172.9158],[-1.22174,-2.20631],[5.22449,9.4348]],[[302.42838,188.77289],[-10.31771,-1.73766],[24.89854,4.22806]],[[360.28023,150.78376],[-4.88497,25.36709],[3.58483,-18.39633]],[[341.44127,102.03904],[16.40921,10.23084],[-6.33901,-3.95225]],[[320.55009,94.23461],[7.13536,1.88411],[-20.32835,-2.95814]],[[261.04166,109.60762],[14.39363,-16.63065],[-3.30667,3.82058]],[[253.69083,121.84705],[1.22341,-4.92172],[-1.6592,6.42671]],[[252.52255,141.54467],[-1.13346,-6.58873],[0.04427,0.25738]],[[254.07747,148.2671],[-0.29387,-0.51972],[1.11104,1.96493]]],&quot;closed&quot;:true}]}" fill="#ffffff" stroke="none" stroke-width="0.5" stroke-linecap="butt"/><path d="M282.35,158.475c-2,0 -2,-2 -2,-2v-0.4c0.04305,-6.44715 1.97659,-13.33735 2.969,-19.74785c-6.17308,-1.00591 -17.55341,-1.59276 -18.76158,-9.08016c-0.07846,-0.48622 1.06126,-3.9289 1.25936,-4.68446c0.71258,-2.71771 0.92489,-5.45006 1.13912,-8.24091c0,0 0.15339,-1.99411 2.1475,-1.84072c1.99411,0.15339 1.84072,2.1475 1.84072,2.1475c-0.2341,3.03718 -0.49258,6.00032 -1.26088,8.95908c-0.3808,1.46648 -1.8025,3.25627 -0.43387,4.56393c3.40202,3.25047 9.96536,3.49131 14.60764,4.21326c0.61895,-5.21101 0.89383,-10.41427 0.893,-15.68965c0,0 0,-2 2,-2c2,0 2,2 2,2c-0.00087,5.65183 -0.37283,11.19561 -1.05112,16.74326c0.1529,0.26854 0.25111,0.61353 0.25111,1.05674c0,0.71232 -0.2537,1.17095 -0.58039,1.46623c-0.21263,1.53367 -0.4479,3.06893 -0.70443,4.60815c-0.81576,4.89467 -2.35744,10.57585 -2.31519,15.52562v0.4c0,0 0,2 -2,2z" fill="#000000" stroke="none" stroke-width="0.5" stroke-linecap="butt"/><path d="M305.95952,132.09549c0.14769,0.86359 -0.43081,1.60738 -0.43081,1.60738c-1.29601,1.66336 -2.34535,2.90786 -3.38466,4.86716c-0.67479,1.27211 -1.6593,3.79613 -2.05803,5.4068c-0.43878,1.77245 -1.48065,3.69371 -0.85805,5.41025c0.79847,2.2014 3.40699,2.22615 5.17717,1.4318c4.2563,-1.90995 7.71701,-6.42016 9.65104,-10.50226c1.00759,-2.12669 2.11253,-4.86856 0.03432,-6.8742c-1.53767,-1.48397 -2.26735,-1.43619 -4.21791,-1.98675c-1.72596,-0.00225 -2.83408,0.18248 -3.91308,0.63983zM300.41271,133.94965c-0.45028,-0.27065 -0.8627,-0.76644 -0.8627,-1.67464c0,-1.34537 0.90501,-1.78573 1.49746,-1.92987c3.34314,-2.16308 5.24895,-2.84725 9.37994,-2.8508c2.98924,0.86087 4.24291,0.827 6.58211,3.21324c6.42982,6.55913 -1.92898,17.20578 -7.27222,21.35405c-1.20263,0.93367 -2.43342,1.89266 -3.84244,2.4695c-4.07857,1.66975 -8.5599,0.57635 -10.42283,-3.76821c-1.18793,-2.77041 0.46005,-7.49603 1.46644,-10.13247c0.94047,-2.46373 2.0862,-4.60458 3.47424,-6.6808z" fill="#000000" stroke="none" stroke-width="0.5" stroke-linecap="butt"/><path d="M335.19807,158.85957c-1.98456,0.24806 -2.23262,-1.73649 -2.23262,-1.73649l-0.21544,-1.84808c0.01078,-3.96569 0.74318,-7.85377 1.77412,-11.70954c-4.32137,0.02361 -9.21527,-0.76924 -11.25772,-5.01809c-0.64538,-1.34255 0.59867,-4.67786 0.97822,-5.88029c1.67464,-5.30536 3.3258,-10.64738 5.22578,-15.87556c0,0 0.68347,-1.87959 2.56306,-1.19611c1.87959,0.68348 1.19611,2.56306 1.19611,2.56306c-1.62349,4.46189 -2.99598,9.02087 -4.45224,13.54015c-0.27172,0.84324 -2.15674,4.75966 -1.74376,5.50401c1.4097,2.54081 5.80984,2.52319 8.65566,2.35316c1.87015,-6.04632 4.11625,-12.05155 5.08523,-18.19272c0,0 0.31193,-1.97553 2.28746,-1.6636c1.97553,0.31193 1.6636,2.28745 1.6636,2.28745c-0.92421,5.84919 -3.09482,11.64074 -4.93857,17.45813c0.30136,0.22585 0.56313,0.58405 0.70333,1.14486c0.48507,1.94028 -1.45522,2.42535 -1.45522,2.42535l-0.34681,0.08089c-1.13215,4.02975 -1.95126,8.08017 -1.93827,12.17883l0.18455,1.35195c0,0 0.24806,1.98456 -1.73649,2.23262z" fill="#000000" stroke="none" stroke-width="0.5" stroke-linecap="butt"/></g></g></svg>