<svg version="1.1" xmlns="http://www.w3.org/2000/svg" xmlns:xlink="http://www.w3.org/1999/xlink" width="239.47336" height="187.11985" viewBox="0,0,239.47336,187.11985"><g transform="translate(-132.52732,-83.397)"><g data-paper-data="{&quot;isPaintingLayer&quot;:true}" fill-rule="nonzero" stroke-linejoin="miter" stroke-miterlimit="10" stroke-dasharray="" stroke-dashoffset="0" style="mix-blend-mode: normal"><g><g><path d="M281.6267,148.69188c0,0 6.87768,7.44664 2.77603,14.53735c-3.24568,5.61097 -15.29715,3.07835 -15.29715,3.07835l-22.21066,-8.0384l-4.64638,22.72361c0,0 -3.47389,11.81457 -9.95278,12.01752c-8.18754,0.25648 -11.49134,-9.32683 -11.49134,-9.32683l-9.09251,-22.83728l-19.79948,0.34664c0,0 -12.95513,-0.20278 -14.30774,-6.54216c-1.70934,-8.01122 7.13313,-12.96762 7.13313,-12.96762l21.29074,-13.74309l-5.79752,-25.99429c0,0 -2.19076,-12.11826 3.50975,-15.20397c7.20387,-3.89947 14.45302,3.18606 14.45302,3.18606l22.75696,17.90267l16.90939,-11.51464c0,0 10.1139,-7.02574 15.28838,-3.12162c6.53913,4.93372 2.54483,15.83763 2.54483,15.83763l-12.38619,18.51827z" fill="#d4a029" stroke="none" stroke-width="0" stroke-linecap="round"/><path d="M280.06205,145.57551c0,0 6.48648,7.02309 2.61813,13.71046c-3.06108,5.29181 -13.50707,0.68192 -13.50707,0.68192l-22.42286,-10.10596c0,0 -4.86696,1.5599 -5.80916,-0.1889c-0.34921,-0.64818 -1.15395,-0.95545 -1.54285,-1.5806c-1.3949,-2.24222 -1.87143,-5.03605 -3.25265,-7.2848c-2.01217,-3.27602 -4.15315,-6.28609 -5.71945,-9.85049c-1.5711,-3.52343 -2.78109,-6.64081 -4.3979,-10.09515c-1.27423,-2.72239 -3.64644,-5.13465 -4.88693,-7.79258c-0.45291,-0.97043 -0.36711,-2.13829 -0.83129,-3.1034c-0.569,-1.18304 -1.61523,-2.08706 -2.22444,-3.2499c-1.19304,-2.27726 -2.02591,-4.91635 -3.28482,-7.26533c-1.91376,-3.57086 -3.54577,-7.01947 -5.63781,-10.48321c-0.51791,-0.85748 -0.91952,-1.64669 -1.28257,-2.39131c6.34879,-2.29484 12.35687,3.57764 12.35687,3.57764l21.46251,16.88435l15.94756,-10.85968c0,0 9.53861,-6.62611 14.41876,-2.94406c6.16717,4.65308 2.40006,14.93677 2.40006,14.93677l-11.68165,17.46496z" fill="#e3ffb5" stroke="none" stroke-width="0" stroke-linecap="butt"/><path d="M278.81788,145.36094c0,0 2.09055,5.33902 5.28965,9.99886c2.42527,3.5327 2.21454,7.19797 -2.6246,8.29571c-2.56793,0.58252 -15.5168,-3.77475 -15.5168,-3.77475c0,0 -7.84524,-3.1799 -11.44746,-4.63998c-0.29115,-0.11802 -0.55456,-0.22479 -0.7839,-0.31774c-1.84861,-0.74928 -4.44435,-1.80142 -4.44435,-1.80142l-8.18261,22.36027c0,0 -2.48672,10.79935 -7.76541,10.79642c-6.67079,-0.00368 -9.64692,-8.94321 -9.64692,-8.94321l-8.08686,-21.3389l-16.13966,-0.26138c0,0 -14.97302,1.59205 -16.2624,-4.29701c-1.62943,-7.44213 9.73404,-11.38751 9.73404,-11.38751l15.8852,-10.59097l-6.34193,-27.21448c0,0 -3.54801,-11.09211 3.28557,-14.56117c1.72289,-1.0127 5.08535,0.96723 9.42531,4.11945c10.17326,7.38913 25.3646,21.31026 25.3646,21.31026l14.29749,-8.24445c0,0 12.29164,-11.75793 16.62691,-8.00371c8.18234,6.7793 -3.19867,21.75777 -3.19867,21.75777l-6.61386,9.19583c0,0 1.49739,1.52469 3.92195,4.1088c2.00722,2.1393 5.45042,3.22807 6.79014,4.65596c2.31178,2.46392 6.43458,8.77737 6.43458,8.77737z" fill="#f2ff5e" stroke="none" stroke-width="0" stroke-linecap="round"/><path d="M282.30294,148.51859c0,0 6.87769,7.44663 2.77604,14.53734c-3.24568,5.61097 -15.29715,3.07836 -15.29715,3.07836l-22.21067,-8.0384l-4.64638,22.72361c0,0 -3.47389,11.81457 -9.95279,12.01752c-8.18754,0.25648 -11.49134,-9.32683 -11.49134,-9.32683l-9.09251,-22.83728l-19.79949,0.34664c0,0 -12.95511,-0.20278 -14.30773,-6.54216c-1.70934,-8.01122 7.13312,-12.96762 7.13312,-12.96762l21.29074,-13.74308l-5.79751,-25.9943c0,0 -2.19076,-12.11826 3.50975,-15.20397c7.20387,-3.89947 14.45302,3.18607 14.45302,3.18607l22.75696,17.90267l16.9094,-11.51464c0,0 10.1139,-7.02573 15.28838,-3.12161c6.53913,4.93372 2.54483,15.83762 2.54483,15.83762l-12.38619,18.51828z" fill="none" stroke="#50230f" stroke-width="4" stroke-linecap="round"/></g><g stroke-linecap="round"><path d="M241.98255,235.74078l-20.38603,-12.25456l36.78252,-39.19838l12.55128,21.95317z" fill="#4981e8" stroke="none" stroke-width="0"/><path d="M241.77547,236.18962l-22.15639,-11.83504l11.53631,-11.0606l5.68216,1.28376c0,0 6.61806,-6.20623 10.41597,-9.52517c4.20806,-3.67737 13.72836,-11.57426 13.72836,-11.57426l2.9725,2.26512c0,0 1.26353,5.59593 0.78663,6.46564c-0.46564,0.84913 -11.1861,14.84259 -11.1861,14.84259l-0.89771,7.73071z" fill="#4a41b0" stroke="none" stroke-width="0"/><path d="M241.74452,235.92525l-21.44228,-12.38844l37.83876,-39.06448l12.55128,21.95317z" fill="none" stroke="#261044" stroke-width="4"/></g><g stroke-linecap="round"><path d="M159.52231,174.33441l-22.73327,-6.99735l26.2867,-46.8879l17.45834,18.29435z" fill="#4981e8" stroke="none" stroke-width="0"/><path d="M159.33556,174.57067l-24.35094,-6.16478l8.5408,-13.50842l5.82415,-0.11911c0,0 4.93302,-7.61456 7.8222,-11.74881c3.20121,-4.58073 10.54522,-14.53375 10.54522,-14.53375l3.42967,1.48457z" fill="#4a41b0" stroke="none" stroke-width="0"/><path d="M159.33556,174.57067l-23.79074,-6.87355l27.34419,-47.01172l17.45834,18.29434z" fill="none" stroke="#261044" stroke-width="4"/></g><path d="M149.06214,185.59103c-3.62818,-30.9889 18.55207,-59.05159 49.54099,-62.67977c2.05292,-0.24035 4.09301,-0.36745 6.11399,-0.38622c-0.13118,2.70597 1.98761,32.43429 1.98761,32.43429l25.27875,-14.80268l4.7708,26.03755l11.6669,-11.76673c0,0 12.72458,16.85339 13.09889,20.05041c3.62818,30.98891 -18.78922,57.02595 -49.77812,60.65413c-30.9889,3.62818 -59.05159,-18.55206 -62.67977,-49.54096z" fill="#4a41b0" stroke="none" stroke-width="0" stroke-linecap="butt"/><path d="M163.65775,180.91289c-3.09786,-26.45932 15.84034,-50.42013 42.29966,-53.51799c0.84112,-0.09848 1.26009,26.74719 1.26009,26.74719l23.20892,-10.95659l5.46944,21.47441l12.73496,-9.18381c0,0 10.96754,15.26869 11.28713,17.99842c3.09785,26.45932 -16.28291,46.64019 -42.74222,49.73805c-26.45932,3.09786 -50.42013,-15.84035 -53.51799,-42.29966z" fill="#4981e8" stroke="none" stroke-width="0" stroke-linecap="butt"/><g data-paper-data="{&quot;index&quot;:null}" stroke="none" stroke-width="0" stroke-linecap="butt"><path d="M181.85236,171.61504c-7.9952,11.40188 -20.11722,16.64163 -27.0753,11.70327c-6.95808,-4.93835 -6.11732,-18.18473 1.87789,-29.58662c7.9952,-11.40189 20.11722,-16.64161 27.07531,-11.70326c6.95808,4.93835 6.11733,18.18473 -1.87789,29.58662z" fill="#40276a"/><path d="M182.81244,171.35167c-7.39532,10.54641 -18.60785,15.393 -25.04387,10.82519c-6.43601,-4.56783 -5.65833,-16.82034 1.73699,-27.36675c7.39533,-10.54641 18.60786,-15.39301 25.04387,-10.82519c6.43601,4.56783 5.65834,16.82034 -1.73699,27.36675z" fill="#523fa9"/></g><g data-paper-data="{&quot;index&quot;:null}" stroke="none" stroke-width="0" stroke-linecap="butt"><path d="M195.55099,139.05127c-5.13952,3.10361 -10.81236,3.02542 -12.67066,-0.17462c-1.85831,-3.20002 0.80167,-8.31015 5.94119,-11.41375c5.13952,-3.10361 10.81237,-3.02542 12.67067,0.1746c1.85831,3.20002 -0.80168,8.31015 -5.9412,11.41376z" fill="#40276a"/><path d="M195.19985,139.42117c-4.75391,2.87074 -8.08305,2.3952 -9.80192,-0.56474c-1.71887,-2.95994 -0.03653,-6.70223 4.71738,-9.57296c4.75391,-2.87074 9.85668,-4.03217 11.57555,-1.07221c1.71887,2.95994 -1.7371,8.33919 -6.49101,11.20993z" fill="#523fa9"/></g><g data-paper-data="{&quot;index&quot;:null}" stroke="none" stroke-width="0" stroke-linecap="butt"><path d="M233.3197,198.59927c6.30549,-8.26631 15.50508,-11.81227 20.54788,-7.92013c5.0428,3.89214 4.01919,13.74852 -2.28629,22.01482c-6.30548,8.26631 -15.50507,11.81227 -20.54787,7.92013c-5.0428,-3.89214 -4.01919,-13.74852 2.2863,-22.01482z" fill="#40276a"/><path d="M232.56527,198.37072c5.83238,-7.6461 14.34174,-10.926 19.00619,-7.32589c4.66444,3.60011 3.71762,12.71697 -2.11477,20.36306c-5.83238,7.6461 -14.34174,10.926 -19.00618,7.32589c-4.66443,-3.60011 -3.71762,-12.71697 2.11477,-20.36306z" fill="#523fa9"/></g><path d="M149.80841,185.86099c-3.62818,-30.9889 18.55206,-59.05159 49.54098,-62.67977c2.05292,-0.24035 4.09301,-0.36745 6.11399,-0.38622c-0.13118,2.70597 1.98761,32.43429 1.98761,32.43429l25.27875,-14.80268l4.7708,26.03757l11.66691,-11.76674c0,0 12.72459,16.85339 13.09889,20.05041c3.62818,30.98891 -18.78923,57.02595 -49.77813,60.65413c-30.9889,3.62818 -59.05159,-18.55206 -62.67977,-49.54096z" data-paper-data="{&quot;index&quot;:null}" fill="none" stroke="#261044" stroke-width="4" stroke-linecap="butt"/></g><path d="M144.81745,224.69343c-0.03888,0.01064 -0.07779,0.02101 -0.11673,0.03109c0.09026,2.89805 0.71376,5.65965 2.49768,7.23742c1.45781,1.28934 6.30521,-1.06934 7.23651,-1.43791c5.65681,-2.23873 11.38304,-4.28695 16.83068,-7.01287c0,0 1.78886,-0.89442 2.68328,0.89444c0.89442,1.78886 -0.89444,2.68328 -0.89444,2.68328c-6.52129,3.25817 -14.08292,6.8985 -21.15842,8.68173c-1.59478,0.40193 -5.50893,0.62645 -6.93439,-0.49253c-3.2229,-2.52998 -3.76082,-6.65535 -3.92422,-10.47862c-4.30084,-1.10635 -5.49432,-6.72963 -4.8031,-10.96856c0.18041,-1.10639 0.48629,-2.18909 0.87756,-3.24647c0.69186,-4.20437 2.62391,-8.60114 6.82001,-10.03486c1.40604,-0.48041 2.92708,-0.51304 4.39063,-0.76957c3.29911,0.56227 6.21337,1.11297 8.64675,3.66169c7.05037,7.38458 -0.27713,20.00921 -9.34108,21.28026c-0.91503,0.12832 -1.86745,0.11417 -2.8107,-0.02852z" fill="#000000" stroke="none" stroke-width="0.5" stroke-linecap="butt"/><path d="M288.32138,214.21297c-0.63067,0.21432 -1.27838,0.38418 -1.93428,0.50831c-0.01147,0.0051 -0.02295,0.0102 -0.03445,0.01528c-3.38079,1.49602 -5.87859,1.82756 -9.40708,0.39011c-3.63732,-1.48178 -4.69589,-5.03608 -3.8547,-8.21491c-0.52306,-1.82219 -0.23474,-3.90057 0.52412,-5.63976c0.50171,-1.42272 1.30716,-2.70196 2.21878,-4.52033c3.07388,-3.06984 6.1535,-5.7773 10.88002,-5.44574c4.85919,0.34087 7.4633,3.94845 8.13599,8.11579c0.50065,0.96264 0.89316,1.98152 1.05076,3.04c0.53262,3.5773 -0.56227,6.46904 -2.51997,8.56743c-0.601,6.51901 -7.30946,13.74299 -12.51582,16.23426c-4.86521,2.32802 -10.24312,3.24203 -15.60955,2.56666c-5.46023,-0.68717 -11.21779,-4.87727 -15.6446,-7.82595c0,0 -1.6641,-1.1094 -0.5547,-2.7735c1.1094,-1.6641 2.7735,-0.5547 2.7735,-0.5547c8.75426,5.84141 17.03366,9.78644 27.30586,4.9807c3.10911,-1.45456 7.2479,-5.39683 9.18612,-9.44365zM284.90481,200.32907c-0.0256,-0.0738 -0.05523,-0.13848 -0.08851,-0.19463c-0.29902,0.23713 -0.75937,0.45223 -0.51894,0.41024c0.19103,-0.03336 0.39541,-0.11229 0.60745,-0.21561zM290.57428,204.33222c0.0202,0.01651 0.04034,0.03308 0.06041,0.04971c0.02363,-0.07596 0.04646,-0.15213 0.06849,-0.22852c-0.0425,0.0596 -0.08547,0.1192 -0.1289,0.17881z" fill="#000000" stroke="none" stroke-width="0.5" stroke-linecap="butt"/><path d="M217.72625,178.98619c-0.0817,-2.18058 -0.06973,-4.5541 0.66747,-6.0642c0.04892,-0.1002 0.10041,-0.19879 0.15422,-0.2959l-0.03758,-0.01769l1.26097,-2.67954c0.31114,-0.7004 1.01286,-1.18886 1.82867,-1.18886c0.89968,0 1.66061,0.59404 1.91195,1.41129l0.62542,1.87624l-0.06641,0.02214l0.11949,0.1679c0.53697,4.17706 0.96778,7.97834 0.51819,12.17522c-0.11922,1.11294 -0.14663,4.48795 -0.90458,5.28091c-0.14599,0.15274 -0.29936,0.29629 -0.45893,0.43216l0.05187,0.05929l-2.55271,2.23362c-0.35274,0.31191 -0.81642,0.50123 -1.32431,0.50123c-1.06225,0 -1.93107,-0.82812 -1.99609,-1.87398l-0.15853,-2.21945c-0.26182,-3.40634 -0.06795,-6.59629 0.36088,-9.82038z" fill="#e2ff95" stroke="none" stroke-width="0.5" stroke-linecap="butt"/><path d="M234.02344,139.24432c-1.78432,0.90344 -2.68776,-0.88088 -2.68776,-0.88088l-0.39301,-0.77623c-1.62705,-3.18734 -2.81784,-7.23549 -5.30072,-9.89703c-3.0156,-3.23257 -7.88328,-1.55941 -10.96494,0.41506c-6.31104,4.04359 -10.18588,10.68043 -14.30455,16.72142c0,0 -1.12667,1.65246 -2.77913,0.52578c-1.65245,-1.12667 -0.52578,-2.77913 -0.52578,-2.77913c4.41657,-6.47734 8.63353,-13.57069 15.45546,-17.83857c4.79064,-2.99708 11.41577,-4.44875 15.91506,0.09506c2.90188,2.93059 4.22961,7.34208 6.06694,10.93812l0.39932,0.78862c0,0 0.90344,1.78431 -0.88088,2.68776z" fill="#000000" stroke="none" stroke-width="0.5" stroke-linecap="butt"/><path d="M192.70455,231.00154c-0.19351,-0.01964 -0.40307,-0.06949 -0.62943,-0.15752c-1.86401,-0.7249 -1.13912,-2.58891 -1.13912,-2.58891c1.49917,-3.80537 3.55698,-6.98526 6.52391,-9.86845c4.1501,-4.03297 10.94896,-7.51488 16.90001,-6.07767c1.43158,0.34573 2.86633,0.74266 4.20426,1.3582c5.56192,2.5589 14.83999,10.59495 9.22148,17.22205c-0.99608,1.17489 -2.27533,2.09628 -3.56,2.9461c-3.04218,2.01241 -4.16244,1.81806 -7.77606,2.4875c-7.54613,0.35137 -14.20421,-0.43625 -21.37601,-2.71697l-1.24804,-0.59702c0,0 -1.33819,-0.66911 -1.12101,-2.00731z" fill="#000000" stroke="none" stroke-width="0.5" stroke-linecap="butt"/><path d="M186.94085,179.4239c0.59178,4.73205 2.37032,11.50795 0.35249,16.06787c-0.53239,1.2031 -1.33258,2.72109 -2.62925,2.94368c-4.67926,0.80323 -4.56647,-2.67733 -4.74312,-5.39303c-0.3538,-5.43903 0.53974,-11.29692 2.35555,-16.41508c0,0 0.67267,-1.88348 2.55616,-1.2108c0.33407,0.11932 0.58773,0.27672 0.77899,0.45495c0.53773,0.29946 0.92296,0.83978 1.00981,1.47511l0.31528,2.04932l-0.0113,0.00173z" fill="#e2ff95" stroke="none" stroke-width="0.5" stroke-linecap="butt"/><path d="M175.56872,258.96084c0.47949,-0.89856 0.89572,-1.77289 1.73687,-3.37869c3.31602,-6.33047 7.32169,-12.3145 10.50556,-18.69659c0,0 0.89443,-1.78886 2.68328,-0.89443c1.78886,0.89443 0.89443,2.68328 0.89443,2.68328c-3.72996,7.4443 -8.15298,14.69598 -12.19751,21.99137c-0.57652,1.03991 -4.5952,8.59351 -6.56672,8.2265c-1.9801,-0.36861 -3.09561,-4.552 -3.52591,-6.31126c-1.38283,-5.65357 -2.62111,-11.04944 -2.61623,-16.90066c0.33616,-3.35549 0.68633,-11.12519 6.30966,-5.43077c0.66746,0.6759 1.65064,6.28907 1.82067,7.28178c0.65059,3.79838 0.88462,7.6021 0.9559,11.42947z" fill="#000000" stroke="none" stroke-width="0.5" stroke-linecap="butt"/><path d="M205.09034,243.74786c0.01552,-0.11588 0.03149,-0.23155 0.04791,-0.34698c0.98145,-1.15313 1.43016,-3.4485 2.94437,-3.45938c2.56721,-0.01846 3.69937,4.22517 4.10843,6.03869c0.67143,2.97675 0.96563,6.00342 1.09049,9.04324c1.49225,-5.30865 3.3359,-10.52116 4.78894,-15.84967c0,0 0.52624,-1.92953 2.45576,-1.40329c1.92953,0.52624 1.40329,2.45576 1.40329,2.45576c-2.25491,8.26687 -5.06499,16.25607 -6.89584,24.64035c-0.33795,1.54762 -0.74865,5.17172 -2.84034,5.56641c-3.80448,0.71789 -4.64102,-3.34783 -5.31742,-5.54716c-1.82836,-5.94493 -2.54854,-12.66513 -2.02569,-18.92274l-0.10586,-0.67177c0,0 -0.13671,-0.86755 0.34596,-1.54345z" fill="#000000" stroke="none" stroke-width="0.5" stroke-linecap="butt"/><g stroke="none" stroke-width="0.5" stroke-linecap="butt"><path d="M318.22129,181.60548c1.22787,-1.57871 2.80658,-0.35084 2.80658,-0.35084l2.13455,1.69215c12.26655,4.31197 27.94415,1.05816 36.27711,-9.17405c10.76558,-16.14417 13.78492,-42.37419 -4.87523,-54.2609c-3.88786,-2.47661 -8.38394,-3.91977 -12.85665,-4.82462c-3.38262,-0.08871 -6.9723,-0.5449 -10.33308,-0.02261c-19.34186,3.00586 -19.84903,28.0713 -23.22579,42.75178c0,0 -0.00046,0.00199 -0.00141,0.00582c0.26016,0.09333 0.53017,0.26023 0.80018,0.53024c1.41422,1.41422 0,2.82843 0,2.82843c-4.69878,4.69826 -9.65216,9.44745 -13.00029,15.24123c-0.61156,1.05828 -1.13005,2.16797 -1.72286,3.23687c-0.17671,0.31861 -0.78356,0.61841 -0.58452,0.92357c0.93063,1.42677 3.30659,0.87294 5.00031,1.05475c5.28147,0.56692 10.65357,0.5442 15.93977,0.13527l1.7372,-0.25246c0,0 1.13347,-0.16193 1.80769,0.61686c0.03002,-0.04354 0.06214,-0.08738 0.09644,-0.13148zM304.25122,156.51694c3.8428,-16.59445 4.79156,-42.37 26.37423,-45.78155c3.76214,-0.59467 7.74829,-0.14025 11.53359,-0.02261c5.07463,1.00522 10.16016,2.60258 14.56123,5.42982c20.66941,13.278 18.01684,41.88214 5.93595,60.00774c-9.7341,11.88082 -27.21537,15.43779 -41.41862,10.30289l-2.66546,-2.04115c0,0 -0.10385,-0.08077 -0.23757,-0.22752c-0.48623,0.75742 -1.45171,0.89535 -1.45171,0.89535l-1.99612,0.28089c-5.51666,0.42205 -11.19489,0.51752 -16.70244,-0.14955c-2.45805,-0.29772 -6.82594,-0.67683 -8.22418,-3.46044c-0.98726,-1.96545 1.77974,-6.42984 2.51932,-7.72224c3.30707,-5.77902 8.12811,-10.57534 12.82173,-15.2592c-1.42606,-0.62267 -1.04996,-2.2524 -1.04996,-2.2524z" fill="#000000"/><path d="M318.10647,181.78347c-0.67422,-0.7788 -1.81022,-0.61795 -1.81022,-0.61795l-1.73906,0.25156c-5.2862,0.40893 -10.6712,0.42219 -15.95266,-0.14473c-1.69371,-0.1818 -4.07265,0.36873 -5.00327,-1.05804c-0.19904,-0.30516 0.40758,-0.60524 0.58429,-0.92386c0.59281,-1.06889 1.1103,-2.17988 1.72186,-3.23816c3.34813,-5.79378 8.29685,-10.55041 12.99563,-15.24867c0,0 1.41202,-1.41913 -0.00219,-2.83335c-0.27001,-0.27 -0.54057,-0.43845 -0.80073,-0.53178c0.00095,-0.00384 0.0014,-0.00583 0.0014,-0.00583c3.37676,-14.68048 3.93199,-39.81218 23.27386,-42.81804c3.36078,-0.52229 6.96454,-0.06385 10.34716,0.02487c4.47271,0.90484 8.98489,2.35648 12.87275,4.83309c18.66015,11.88671 15.64805,38.18824 4.88247,54.33242c-8.33296,10.23221 -24.05998,13.50249 -36.32652,9.19052l-2.13813,-1.69311c0,0 -1.58225,-1.22912 -2.81012,0.34959c-0.03431,0.04411 -0.06648,0.08793 -0.0965,0.13147z" data-paper-data="{&quot;noHover&quot;:false,&quot;origItem&quot;:[&quot;Path&quot;,{&quot;applyMatrix&quot;:true,&quot;segments&quot;:[[[856.44257,331.21096],[-0.06861,0.08822],[2.45574,-3.15742]],[862.05574,330.50928],[[866.32483,333.89358],[0,0],[24.53309,8.62394]],[[938.87906,315.54547],[-16.66592,20.46442],[21.53115,-32.28834]],[[929.1286,207.02368],[37.3203,23.77342],[-7.77572,-4.95322]],[[903.41529,197.37445],[8.94542,1.80969],[-6.76524,-0.17743]],[[882.74914,197.32923],[6.72156,-1.04458],[-38.68373,6.01172]],[[836.29757,282.83278],[6.75352,-29.36095],[0,0]],[[836.29474,282.84443],[0.0019,-0.00767],[0.52033,0.18666]],[[837.8951,283.90491],[-0.54001,-0.54001],[2.82843,2.82843]],[[837.8951,289.56176],[0,0],[-9.39756,9.39653]],[[811.89451,320.04421],[6.69626,-11.58755],[-1.22312,2.11655]],[[808.44878,326.51795],[1.18562,-2.13779],[-0.35341,0.63723]],[[807.27975,328.36509],[-0.39808,-0.61031],[1.86125,2.85354]],[[817.28037,330.47459],[-3.38743,-0.36361],[10.56293,1.13384]],[[849.15991,330.74512],[-10.5724,0.81786],[0,0]],[852.63431,330.2402],[[856.24969,331.47393],[-1.34845,-1.55759],[0.06004,-0.08708]]],&quot;closed&quot;:true}]}" fill="#ffffff"/><path d="M335.6278,158.75551c-1.78884,0.89445 -2.68329,-0.8944 -2.68329,-0.8944l-0.29242,-0.69463c-2.3044,-3.15988 -4.36418,-3.78557 -1.61951,-7.57539c0.08853,-0.12224 6.23119,-4.35567 6.23582,-4.35906c2.71709,-1.98431 4.74284,-3.95182 6.78082,-6.62934c0.43451,-0.57085 3.46802,-4.20826 3.62975,-5.41468c0.05827,-0.43469 -0.47188,-0.82307 -0.88322,-0.97522c-1.12218,-0.41509 -5.72824,-0.75645 -6.72631,-0.69777c-1.25844,0.07399 -2.48512,0.42516 -3.72839,0.6335c-2.09808,0.3516 -4.19891,0.75829 -6.2251,1.40646c-3.78611,1.21117 -7.47517,2.37637 -11.13984,3.92162c0,0 -1.84327,0.77611 -2.61938,-1.06716c-0.77612,-1.84327 1.06716,-2.61939 1.06716,-2.61939c7.9599,-3.34692 17.98686,-7.31771 26.78118,-6.04202c2.98039,0.43233 7.04489,0.75214 7.44932,4.99728c0.16576,1.73989 -1.04353,3.35801 -1.86692,4.89967c-2.30691,4.31929 -6.22933,7.94404 -10.12254,10.78964c-1.10068,0.8045 -2.22539,1.57636 -3.36205,2.32917c-0.87544,0.57979 -3.08146,0.98409 -2.52954,1.87736c0.49148,0.79544 1.31639,1.32825 1.97458,1.99237l0.77428,1.43868c0,0 0.89445,1.78884 -0.8944,2.68329z" fill="#000000"/><path d="M336.46667,170.56667c0,-1.10457 0.89543,-2 2,-2c1.10457,0 2,0.89543 2,2c0,1.10457 -0.89543,2 -2,2c-1.10457,0 -2,-0.89543 -2,-2z" fill="#000000"/></g></g></g></svg>